<svg xmlns="http://www.w3.org/2000/svg" xmlns:xlink="http://www.w3.org/1999/xlink" version="1.1" width="219.24408" height="225.18756" viewBox="0 0 219.24408 225.18756">
<g>
<path d="M138.188 118.203C138.188 125.66 132.137 131.707 124.676 131.707 117.215 131.707 111.164 125.66 111.164 118.203 111.164 110.742 117.215 104.699 124.676 104.699 132.137 104.699 138.188 110.742 138.188 118.203ZM138.188 118.203"/>
<path d="M131.582 111.707C131.582 114.461 129.352 116.691 126.602 116.691 123.848 116.691 121.621 114.461 121.621 111.707 121.621 108.953 123.848 106.723 126.602 106.723 129.352 106.723 131.582 108.953 131.582 111.707ZM131.582 111.707" fill="#0080ff"/>
<path d="M127.785 124.977C127.785 127.727 125.555 129.961 122.805 129.961 120.055 129.961 117.824 127.727 117.824 124.977 117.824 122.223 120.055 119.988 122.805 119.988 125.555 119.988 127.785 122.223 127.785 124.977ZM127.785 124.977" fill="#eb893b"/>
<path d="M122.371 115.984C122.371 118.738 120.141 120.973 117.391 120.973 114.637 120.973 112.41 118.738 112.41 115.984 112.41 113.23 114.637 111 117.391 111 120.141 111 122.371 113.23 122.371 115.984ZM122.371 115.984" fill="#0080ff"/>
<path d="M137.156 120.488C137.156 123.242 134.926 125.473 132.176 125.473 129.426 125.473 127.195 123.242 127.195 120.488 127.195 117.734 129.426 115.504 132.176 115.504 134.926 115.504 137.156 117.734 137.156 120.488ZM137.156 120.488" fill="#eb893b"/>
<path d="M59.254 197.676C59.254 205.133 53.207 211.18 45.742 211.18 38.281 211.18 32.234 205.133 32.234 197.676 32.234 190.215 38.281 184.172 45.742 184.172 53.207 184.172 59.254 190.215 59.254 197.676ZM59.254 197.676"/>
<path d="M52.648 191.18C52.648 193.934 50.418 196.164 47.668 196.164 44.918 196.164 42.688 193.934 42.688 191.18 42.688 188.426 44.918 186.195 47.668 186.195 50.418 186.195 52.648 188.426 52.648 191.18ZM52.648 191.18" fill="#0080ff"/>
<path d="M48.855 204.449C48.855 207.199 46.625 209.434 43.875 209.434 41.121 209.434 38.891 207.199 38.891 204.449 38.891 201.695 41.121 199.461 43.875 199.461 46.625 199.461 48.855 201.695 48.855 204.449ZM48.855 204.449" fill="#0080ff"/>
<path d="M43.438 195.457C43.438 198.211 41.207 200.441 38.457 200.441 35.707 200.441 33.477 198.211 33.477 195.457 33.477 192.703 35.707 190.473 38.457 190.473 41.207 190.473 43.438 192.703 43.438 195.457ZM43.438 195.457" fill="#eb893b"/>
<path d="M58.223 199.961C58.223 202.715 55.996 204.945 53.242 204.945 50.492 204.945 48.262 202.715 48.262 199.961 48.262 197.207 50.492 194.977 53.242 194.977 55.996 194.977 58.223 197.207 58.223 199.961ZM58.223 199.961" fill="#eb893b"/>
<path d="M59.535 197.133C59.535 204.594 53.484 210.641 46.023 210.641 38.562 210.641 32.516 204.594 32.516 197.133 32.516 189.676 38.562 183.629 46.023 183.629 53.484 183.629 59.535 189.676 59.535 197.133ZM59.535 197.133"/>
<path d="M52.93 190.637C52.93 193.391 50.699 195.625 47.949 195.625 45.199 195.625 42.969 193.391 42.969 190.637 42.969 187.887 45.199 185.652 47.949 185.652 50.699 185.652 52.93 187.887 52.93 190.637ZM52.93 190.637" fill="#0080ff"/>
<path d="M49.133 203.906C49.133 206.66 46.906 208.891 44.152 208.891 41.402 208.891 39.172 206.66 39.172 203.906 39.172 201.152 41.402 198.922 44.152 198.922 46.906 198.922 49.133 201.152 49.133 203.906ZM49.133 203.906" fill="#0080ff"/>
<path d="M43.719 194.918C43.719 197.672 41.488 199.902 38.738 199.902 35.988 199.902 33.758 197.672 33.758 194.918 33.758 192.164 35.988 189.934 38.738 189.934 41.488 189.934 43.719 192.164 43.719 194.918ZM43.719 194.918" fill="#0080ff"/>
<path d="M58.504 199.418C58.504 202.172 56.273 204.406 53.523 204.406 50.773 204.406 48.543 202.172 48.543 199.418 48.543 196.664 50.773 194.434 53.523 194.434 56.273 194.434 58.504 196.664 58.504 199.418ZM58.504 199.418" fill="#0080ff"/>
<path d="M177.652 78.738C177.652 86.195 171.602 92.242 164.141 92.242 156.68 92.242 150.629 86.195 150.629 78.738 150.629 71.277 156.68 65.23 164.141 65.23 171.602 65.23 177.652 71.277 177.652 78.738ZM177.652 78.738"/>
<path d="M171.047 72.242C171.047 74.996 168.816 77.227 166.066 77.227 163.316 77.227 161.086 74.996 161.086 72.242 161.086 69.488 163.316 67.258 166.066 67.258 168.816 67.258 171.047 69.488 171.047 72.242ZM171.047 72.242" fill="#0080ff"/>
<path d="M167.25 85.508C167.25 88.262 165.02 90.496 162.27 90.496 159.52 90.496 157.289 88.262 157.289 85.508 157.289 82.758 159.52 80.523 162.27 80.523 165.02 80.523 167.25 82.758 167.25 85.508ZM167.25 85.508" fill="#eb893b"/>
<path d="M161.836 76.52C161.836 79.273 159.605 81.504 156.855 81.504 154.105 81.504 151.875 79.273 151.875 76.52 151.875 73.766 154.105 71.535 156.855 71.535 159.605 71.535 161.836 73.766 161.836 76.52ZM161.836 76.52" fill="#eb893b"/>
<path d="M176.621 81.023C176.621 83.777 174.391 86.008 171.641 86.008 168.891 86.008 166.66 83.777 166.66 81.023 166.66 78.27 168.891 76.035 171.641 76.035 174.391 76.035 176.621 78.27 176.621 81.023ZM176.621 81.023" fill="#eb893b"/>
<path d="M217.117 39.27C217.117 46.73 211.066 52.777 203.605 52.777 196.145 52.777 190.098 46.73 190.098 39.27 190.098 31.812 196.145 25.766 203.605 25.766 211.066 25.766 217.117 31.812 217.117 39.27ZM217.117 39.27"/>
<path d="M210.512 32.777C210.512 35.527 208.281 37.762 205.531 37.762 202.781 37.762 200.551 35.527 200.551 32.777 200.551 30.023 202.781 27.789 205.531 27.789 208.281 27.789 210.512 30.023 210.512 32.777ZM210.512 32.777" fill="#eb893b"/>
<path d="M206.719 46.043C206.719 48.797 204.488 51.027 201.734 51.027 198.984 51.027 196.754 48.797 196.754 46.043 196.754 43.289 198.984 41.059 201.734 41.059 204.488 41.059 206.719 43.289 206.719 46.043ZM206.719 46.043" fill="#eb893b"/>
<path d="M201.301 37.055C201.301 39.809 199.07 42.039 196.32 42.039 193.57 42.039 191.34 39.809 191.34 37.055 191.34 34.301 193.57 32.07 196.32 32.07 199.07 32.07 201.301 34.301 201.301 37.055ZM201.301 37.055" fill="#eb893b"/>
<path d="M216.086 41.555C216.086 44.309 213.855 46.543 211.105 46.543 208.355 46.543 206.125 44.309 206.125 41.555 206.125 38.805 208.355 36.57 211.105 36.57 213.855 36.57 216.086 38.805 216.086 41.555ZM216.086 41.555" fill="#eb893b"/>
<path d="M98.719 157.668C98.719 165.129 92.672 171.172 85.211 171.172 77.746 171.172 71.699 165.129 71.699 157.668 71.699 150.211 77.746 144.164 85.211 144.164 92.672 144.164 98.719 150.211 98.719 157.668ZM98.719 157.668"/>
<path d="M92.117 151.172C92.117 153.926 89.887 156.156 87.133 156.156 84.383 156.156 82.152 153.926 82.152 151.172 82.152 148.418 84.383 146.188 87.133 146.188 89.887 146.188 92.117 148.418 92.117 151.172ZM92.117 151.172" fill="#0080ff"/>
<path d="M88.32 164.441C88.32 167.195 86.09 169.426 83.34 169.426 80.59 169.426 78.359 167.195 78.359 164.441 78.359 161.688 80.59 159.457 83.34 159.457 86.09 159.457 88.32 161.688 88.32 164.441ZM88.32 164.441" fill="#0080ff"/>
<path d="M82.906 155.453C82.906 158.203 80.676 160.438 77.922 160.438 75.172 160.438 72.941 158.203 72.941 155.453 72.941 152.699 75.172 150.465 77.922 150.465 80.676 150.465 82.906 152.699 82.906 155.453ZM82.906 155.453" fill="#0080ff"/>
<path d="M97.691 159.953C97.691 162.707 95.461 164.938 92.711 164.938 89.957 164.938 87.727 162.707 87.727 159.953 87.727 157.199 89.957 154.969 92.711 154.969 95.461 154.969 97.691 157.199 97.691 159.953ZM97.691 159.953" fill="#eb893b"/>
<path d="M56.141 157.52C56.141 163.34 51.418 168.059 45.594 168.059 39.773 168.059 35.051 163.34 35.051 157.52 35.051 151.699 39.773 146.98 45.594 146.98 51.418 146.98 56.141 151.699 56.141 157.52ZM56.141 157.52"/>
<path d="M52.875 153.152C52.875 155.551 50.934 157.492 48.539 157.492 46.145 157.492 44.199 155.551 44.199 153.152 44.199 150.754 46.145 148.812 48.539 148.812 50.934 148.812 52.875 150.754 52.875 153.152ZM52.875 153.152" fill="#0080ff"/>
<path d="M44.855 156.879C44.855 159.273 42.914 161.219 40.52 161.219 38.121 161.219 36.18 159.273 36.18 156.879 36.18 154.48 38.121 152.535 40.52 152.535 42.914 152.535 44.855 154.48 44.855 156.879ZM44.855 156.879" fill="#0080ff"/>
<path d="M51.863 162.242C51.863 164.641 49.922 166.586 47.527 166.586 45.133 166.586 43.191 164.641 43.191 162.242 43.191 159.848 45.133 157.902 47.527 157.902 49.922 157.902 51.863 159.848 51.863 162.242ZM51.863 162.242" fill="#0080ff"/>
<path d="M55.445 118.414C55.445 123.652 51.195 127.902 45.953 127.902 40.711 127.902 36.461 123.652 36.461 118.414 36.461 113.176 40.711 108.926 45.953 108.926 51.195 108.926 55.445 113.176 55.445 118.414ZM55.445 118.414"/>
<path d="M46.676 116.047C46.676 118.445 44.734 120.387 42.34 120.387 39.945 120.387 38.004 118.445 38.004 116.047 38.004 113.648 39.945 111.707 42.34 111.707 44.734 111.707 46.676 113.648 46.676 116.047ZM46.676 116.047" fill="#0080ff"/>
<path d="M53.688 121.414C53.688 123.809 51.746 125.754 49.348 125.754 46.953 125.754 45.012 123.809 45.012 121.414 45.012 119.016 46.953 117.074 49.348 117.074 51.746 117.074 53.688 119.016 53.688 121.414ZM53.688 121.414" fill="#0080ff"/>
<path d="M50.746 79.746C50.746 82.355 48.629 84.473 46.02 84.473 43.41 84.473 41.293 82.355 41.293 79.746 41.293 77.137 43.41 75.023 46.02 75.023 48.629 75.023 50.746 77.137 50.746 79.746ZM50.746 79.746"/>
<path d="M50.344 79.754C50.344 82.152 48.402 84.094 46.008 84.094 43.613 84.094 41.672 82.152 41.672 79.754 41.672 77.355 43.613 75.414 46.008 75.414 48.402 75.414 50.344 77.355 50.344 79.754ZM50.344 79.754" fill="#0080ff"/>
<path d="M94.77 117.359C94.77 123.18 90.051 127.898 84.227 127.898 78.406 127.898 73.684 123.18 73.684 117.359 73.684 111.539 78.406 106.82 84.227 106.82 90.051 106.82 94.77 111.539 94.77 117.359ZM94.77 117.359"/>
<path d="M91.508 112.988C91.508 115.387 89.566 117.332 87.168 117.332 84.773 117.332 82.832 115.387 82.832 112.988 82.832 110.594 84.773 108.648 87.168 108.648 89.566 108.648 91.508 110.594 91.508 112.988ZM91.508 112.988" fill="#0080ff"/>
<path d="M83.488 116.715C83.488 119.113 81.543 121.055 79.148 121.055 76.754 121.055 74.812 119.113 74.812 116.715 74.812 114.316 76.754 112.375 79.148 112.375 81.543 112.375 83.488 114.316 83.488 116.715ZM83.488 116.715" fill="#eb893b"/>
<path d="M90.496 122.082C90.496 124.48 88.555 126.422 86.16 126.422 83.762 126.422 81.82 124.48 81.82 122.082 81.82 119.684 83.762 117.742 86.16 117.742 88.555 117.742 90.496 119.684 90.496 122.082ZM90.496 122.082" fill="#0080ff"/>
<path d="M173.953 40.102C173.953 45.922 169.234 50.641 163.41 50.641 157.59 50.641 152.867 45.922 152.867 40.102 152.867 34.281 157.59 29.562 163.41 29.562 169.234 29.562 173.953 34.281 173.953 40.102ZM173.953 40.102"/>
<path d="M170.691 35.73C170.691 38.129 168.75 40.07 166.352 40.07 163.957 40.07 162.016 38.129 162.016 35.73 162.016 33.332 163.957 31.391 166.352 31.391 168.75 31.391 170.691 33.332 170.691 35.73ZM170.691 35.73" fill="#eb893b"/>
<path d="M162.672 39.457C162.672 41.852 160.727 43.797 158.332 43.797 155.938 43.797 153.996 41.852 153.996 39.457 153.996 37.059 155.938 35.113 158.332 35.113 160.727 35.113 162.672 37.059 162.672 39.457ZM162.672 39.457" fill="#eb893b"/>
<path d="M169.68 44.824C169.68 47.219 167.738 49.164 165.344 49.164 162.945 49.164 161.004 47.219 161.004 44.824 161.004 42.426 162.945 40.48 165.344 40.48 167.738 40.48 169.68 42.426 169.68 44.824ZM169.68 44.824" fill="#eb893b"/>
<path d="M94.078 78.25C94.078 83.492 89.828 87.738 84.586 87.738 79.344 87.738 75.094 83.492 75.094 78.25 75.094 73.012 79.344 68.766 84.586 68.766 89.828 68.766 94.078 73.012 94.078 78.25ZM94.078 78.25"/>
<path d="M85.309 75.883C85.309 78.281 83.367 80.227 80.973 80.227 78.578 80.227 76.637 78.281 76.637 75.883 76.637 73.488 78.578 71.543 80.973 71.543 83.367 71.543 85.309 73.488 85.309 75.883ZM85.309 75.883" fill="#eb893b"/>
<path d="M92.316 81.25C92.316 83.648 90.375 85.59 87.98 85.59 85.586 85.59 83.645 83.648 83.645 81.25 83.645 78.855 85.586 76.91 87.98 76.91 90.375 76.91 92.316 78.855 92.316 81.25ZM92.316 81.25" fill="#0080ff"/>
<path d="M89.445 41.199C89.445 43.809 87.328 45.922 84.719 45.922 82.105 45.922 79.992 43.809 79.992 41.199 79.992 38.59 82.105 36.473 84.719 36.473 87.328 36.473 89.445 38.59 89.445 41.199ZM89.445 41.199"/>
<path d="M89.043 41.207C89.043 43.602 87.102 45.547 84.707 45.547 82.309 45.547 80.367 43.602 80.367 41.207 80.367 38.809 82.309 36.863 84.707 36.863 87.102 36.863 89.043 38.809 89.043 41.207ZM89.043 41.207" fill="#eb893b"/>
<path d="M133.734 40.082C133.734 45.324 129.488 49.57 124.246 49.57 119.004 49.57 114.754 45.324 114.754 40.082 114.754 34.844 119.004 30.598 124.246 30.598 129.488 30.598 133.734 34.844 133.734 40.082ZM133.734 40.082"/>
<path d="M124.969 37.715C124.969 40.113 123.027 42.059 120.633 42.059 118.234 42.059 116.293 40.113 116.293 37.715 116.293 35.32 118.234 33.375 120.633 33.375 123.027 33.375 124.969 35.32 124.969 37.715ZM124.969 37.715" fill="#eb893b"/>
<path d="M131.977 43.082C131.977 45.48 130.035 47.422 127.641 47.422 125.246 47.422 123.305 45.48 123.305 43.082 123.305 40.688 125.246 38.742 127.641 38.742 130.035 38.742 131.977 40.688 131.977 43.082ZM131.977 43.082" fill="#eb893b"/>
<path d="M134.688 78.363C134.688 84.184 129.969 88.902 124.145 88.902 118.32 88.902 113.602 84.184 113.602 78.363 113.602 72.543 118.32 67.824 124.145 67.824 129.969 67.824 134.688 72.543 134.688 78.363ZM134.688 78.363"/>
<path d="M131.426 73.992C131.426 76.391 129.484 78.332 127.086 78.332 124.691 78.332 122.75 76.391 122.75 73.992 122.75 71.594 124.691 69.652 127.086 69.652 129.484 69.652 131.426 71.594 131.426 73.992ZM131.426 73.992" fill="#0080ff"/>
<path d="M123.402 77.719C123.402 80.117 121.461 82.059 119.066 82.059 116.672 82.059 114.73 80.117 114.73 77.719 114.73 75.32 116.672 73.379 119.066 73.379 121.461 73.379 123.402 75.32 123.402 77.719ZM123.402 77.719" fill="#eb893b"/>
<path d="M130.414 83.086C130.414 85.484 128.473 87.426 126.078 87.426 123.68 87.426 121.738 85.484 121.738 83.086 121.738 80.688 123.68 78.746 126.078 78.746 128.473 78.746 130.414 80.688 130.414 83.086ZM130.414 83.086" fill="#eb893b"/>
<text fill="#c31e1e" xml:space="preserve" transform="matrix(1 0 0 1 0 0)" font-size="10.560728" font-family="DejaVuSans"><tspan y="11.065777" x="81.80861">x</tspan><tspan y="43.395494" x="43.14267">x</tspan><tspan y="83.38742" x="5.564335">x</tspan><tspan y="120.37117" x="5.564335">x</tspan><tspan y="159.80339" x="5.439619">x</tspan><tspan y="199.55179" x="5.564335">x</tspan><tspan y="11.06369" x="121.2045 159.7406">xx</tspan><tspan y="10.78878" x="200.2118">x</tspan></text>
<path stroke-width=".793701" stroke-linecap="butt" stroke-miterlimit="4" stroke-linejoin="miter" fill="none" stroke="#000000" d="M43.547 45.262 43.578 69.934"/>
<path transform="matrix(.00134313,1,-1,.00134313,0,0)" d="M72.371-43.485C71.183-43.088 69.596-42.297 68.802-41.501 68.802-41.501 68.8-43.087 69.594-43.485 68.801-43.884 68.799-45.47 68.799-45.47 69.595-44.676 71.18-43.881 72.371-43.485ZM72.371-43.485" fill-rule="evenodd"/>
<path transform="matrix(.00134313,1,-1,.00134313,0,0)" stroke-width=".529133" stroke-linecap="butt" stroke-miterlimit="4" stroke-linejoin="miter" fill="none" stroke="#000000" d="M72.371-43.485C71.183-43.088 69.596-42.297 68.802-41.501 68.802-41.501 68.8-43.087 69.594-43.485 68.801-43.884 68.799-45.47 68.799-45.47 69.595-44.676 71.18-43.881 72.371-43.485ZM72.371-43.485"/>
<path stroke-width=".793701" stroke-linecap="butt" stroke-miterlimit="4" stroke-linejoin="miter" fill="none" stroke="#000000" d="M84.801 12.805 84.789 32.023"/>
<path transform="matrix(-.000619403,1,-1,-.000619403,0,0)" d="M34.354-84.81C33.163-84.415 31.577-83.621 30.781-82.828 30.781-82.828 30.784-84.414 31.576-84.809 30.783-85.207 30.782-86.793 30.782-86.793 31.576-86 33.162-85.208 34.354-84.81ZM34.354-84.81" fill-rule="evenodd"/>
<path transform="matrix(-.000619403,1,-1,-.000619403,0,0)" stroke-width=".529134" stroke-linecap="butt" stroke-miterlimit="4" stroke-linejoin="miter" fill="none" stroke="#000000" d="M34.354-84.81C33.163-84.415 31.577-83.621 30.781-82.828 30.781-82.828 30.784-84.414 31.576-84.809 30.783-85.207 30.782-86.793 30.782-86.793 31.576-86 33.162-85.208 34.354-84.81ZM34.354-84.81"/>
<path stroke-width=".737008" stroke-linecap="butt" stroke-miterlimit="4" stroke-linejoin="miter" fill="none" stroke="#000000" d="M82.48 88.941 82.469 102.051"/>
<path transform="matrix(-.00110294,1,-1,-.00110294,0,0)" d="M104.171-82.58C103.066-82.211 101.59-81.475 100.852-80.736 100.852-80.736 100.855-82.213 101.589-82.581 100.854-82.947 100.852-84.424 100.852-84.424 101.591-83.686 103.065-82.95 104.171-82.58ZM104.171-82.58" fill-rule="evenodd"/>
<path transform="matrix(-.00110294,1,-1,-.00110294,0,0)" stroke-width=".491338" stroke-linecap="butt" stroke-miterlimit="4" stroke-linejoin="miter" fill="none" stroke="#000000" d="M104.171-82.58C103.066-82.211 101.59-81.475 100.852-80.736 100.852-80.736 100.855-82.213 101.589-82.581 100.854-82.947 100.852-84.424 100.852-84.424 101.591-83.686 103.065-82.95 104.171-82.58ZM104.171-82.58"/>
<path stroke-width=".793701" stroke-linecap="butt" stroke-miterlimit="4" stroke-linejoin="miter" fill="none" stroke="#000000" d="M43.59 85.98 43.578 103.133"/>
<path transform="matrix(-.000727152,1,-1,-.000727152,0,0)" d="M105.484-43.651C104.293-43.256 102.707-42.461 101.911-41.668 101.911-41.668 101.914-43.254 102.707-43.653 101.913-44.047 101.912-45.637 101.912-45.637 102.706-44.844 104.292-44.048 105.484-43.651ZM105.484-43.651" fill-rule="evenodd"/>
<path transform="matrix(-.000727152,1,-1,-.000727152,0,0)" stroke-width=".529134" stroke-linecap="butt" stroke-miterlimit="4" stroke-linejoin="miter" fill="none" stroke="#000000" d="M105.484-43.651C104.293-43.256 102.707-42.461 101.911-41.668 101.911-41.668 101.914-43.254 102.707-43.653 101.913-44.047 101.912-45.637 101.912-45.637 102.706-44.844 104.292-44.048 105.484-43.651ZM105.484-43.651"/>
<path stroke-width=".865043" stroke-linecap="butt" stroke-miterlimit="4" stroke-linejoin="miter" fill="none" stroke="#000000" d="M48.27 89.488 48.258 106.352"/>
<path transform="matrix(.000706035,-1,1,.000706035,0,0)" d="M-86.857 48.331C-88.157 48.765-89.887 49.63-90.75 50.494-90.75 50.494-90.751 48.763-89.888 48.333-90.751 47.9-90.753 46.17-90.753 46.17-89.885 47.032-88.158 47.898-86.857 48.331ZM-86.857 48.331" fill-rule="evenodd"/>
<path transform="matrix(.000706035,-1,1,.000706035,0,0)" stroke-width=".576695" stroke-linecap="butt" stroke-miterlimit="4" stroke-linejoin="miter" fill="none" stroke="#000000" d="M-86.857 48.331C-88.157 48.765-89.887 49.63-90.75 50.494-90.75 50.494-90.751 48.763-89.888 48.333-90.751 47.9-90.753 46.17-90.753 46.17-89.885 47.032-88.158 47.898-86.857 48.331ZM-86.857 48.331"/>
<path stroke-width=".852792" stroke-linecap="butt" stroke-miterlimit="4" stroke-linejoin="miter" fill="none" stroke="#000000" d="M48.227 48.719 48.219 73.152"/>
<path transform="matrix(.000336455,-1,1,.000336455,0,0)" d="M-46.144 48.242C-47.421 48.668-49.128 49.524-49.979 50.376-49.979 50.376-49.98 48.669-49.128 48.243-49.98 47.818-49.981 46.111-49.981 46.111-49.129 46.966-47.421 47.817-46.144 48.242ZM-46.144 48.242" fill-rule="evenodd"/>
<path transform="matrix(.000336455,-1,1,.000336455,0,0)" stroke-width=".568528" stroke-linecap="butt" stroke-miterlimit="4" stroke-linejoin="miter" fill="none" stroke="#000000" d="M-46.144 48.242C-47.421 48.668-49.128 49.524-49.979 50.376-49.979 50.376-49.98 48.669-49.128 48.243-49.98 47.818-49.981 46.111-49.981 46.111-49.129 46.966-47.421 47.817-46.144 48.242ZM-46.144 48.242"/>
<path stroke-width=".793701" stroke-linecap="butt" stroke-miterlimit="4" stroke-linejoin="miter" fill="none" stroke="#000000" d="M43.59 128.641 43.578 141.746"/>
<path transform="matrix(-.00110294,1,-1,-.00110294,0,0)" d="M144.081-43.733C142.89-43.337 141.301-42.543 140.509-41.749 140.509-41.749 140.511-43.335 141.303-43.734 140.51-44.128 140.508-45.717 140.508-45.717 141.302-44.921 142.889-44.13 144.081-43.733ZM144.081-43.733" fill-rule="evenodd"/>
<path transform="matrix(-.00110294,1,-1,-.00110294,0,0)" stroke-width=".529134" stroke-linecap="butt" stroke-miterlimit="4" stroke-linejoin="miter" fill="none" stroke="#000000" d="M144.081-43.733C142.89-43.337 141.301-42.543 140.509-41.749 140.509-41.749 140.511-43.335 141.303-43.734 140.51-44.128 140.508-45.717 140.508-45.717 141.302-44.921 142.889-44.13 144.081-43.733ZM144.081-43.733"/>
<path stroke-width=".793701" stroke-linecap="butt" stroke-miterlimit="4" stroke-linejoin="miter" fill="none" stroke="#000000" d="M43.594 168.852 43.574 179.098"/>
<path transform="matrix(-.00163252,1,-1,-.00163252,0,0)" d="M181.409-43.866C180.218-43.47 178.63-42.678 177.834-41.884 177.834-41.884 177.835-43.47 178.628-43.87 177.834-44.263 177.835-45.853 177.835-45.853 178.63-45.057 180.217-44.263 181.409-43.866ZM181.409-43.866" fill-rule="evenodd"/>
<path transform="matrix(-.00163252,1,-1,-.00163252,0,0)" stroke-width=".529133" stroke-linecap="butt" stroke-miterlimit="4" stroke-linejoin="miter" fill="none" stroke="#000000" d="M181.409-43.866C180.218-43.47 178.63-42.678 177.834-41.884 177.834-41.884 177.835-43.47 178.628-43.87 177.834-44.263 177.835-45.853 177.835-45.853 178.63-45.057 180.217-44.263 181.409-43.866ZM181.409-43.866"/>
<path stroke-width=".772614" stroke-linecap="butt" stroke-miterlimit="4" stroke-linejoin="miter" fill="none" stroke="#000000" d="M82.219 129.223 82.203 139.961"/>
<path transform="matrix(-.00142571,1,-1,-.00142571,0,0)" d="M142.16-82.402C141-82.014 139.454-81.242 138.682-80.471 138.682-80.471 138.684-82.014 139.457-82.402 138.683-82.788 138.684-84.334 138.684-84.334 139.455-83.562 140.999-82.787 142.16-82.402ZM142.16-82.402" fill-rule="evenodd"/>
<path transform="matrix(-.00142571,1,-1,-.00142571,0,0)" stroke-width=".515075" stroke-linecap="butt" stroke-miterlimit="4" stroke-linejoin="miter" fill="none" stroke="#000000" d="M142.16-82.402C141-82.014 139.454-81.242 138.682-80.471 138.682-80.471 138.684-82.014 139.457-82.402 138.683-82.788 138.684-84.334 138.684-84.334 139.455-83.562 140.999-82.787 142.16-82.402ZM142.16-82.402"/>
<path stroke-width=".772614" stroke-linecap="butt" stroke-miterlimit="4" stroke-linejoin="miter" fill="none" stroke="#000000" d="M86.957 131.957 86.941 142.695"/>
<path transform="matrix(.00142571,-1,1,.00142571,0,0)" d="M-129.516 87.146C-130.676 87.534-132.222 88.306-132.994 89.076-132.994 89.076-132.992 87.533-132.22 87.146-132.993 86.76-132.992 85.213-132.992 85.213-132.221 85.989-130.673 86.761-129.516 87.146ZM-129.516 87.146" fill-rule="evenodd"/>
<path transform="matrix(.00142571,-1,1,.00142571,0,0)" stroke-width=".515075" stroke-linecap="butt" stroke-miterlimit="4" stroke-linejoin="miter" fill="none" stroke="#000000" d="M-129.516 87.146C-130.676 87.534-132.222 88.306-132.994 89.076-132.994 89.076-132.992 87.533-132.22 87.146-132.993 86.76-132.992 85.213-132.992 85.213-132.221 85.989-130.673 86.761-129.516 87.146ZM-129.516 87.146"/>
<path stroke-width=".712052" stroke-linecap="butt" stroke-miterlimit="4" stroke-linejoin="miter" fill="none" stroke="#000000" d="M87.871 174.711 87.852 182.613"/>
<path transform="matrix(.00222425,-1,1,.00222425,0,0)" d="M-172.378 88.258C-173.447 88.616-174.872 89.326-175.581 90.039-175.581 90.039-175.58 88.617-174.87 88.26-175.582 87.902-175.581 86.48-175.581 86.48-174.869 87.19-173.445 87.901-172.378 88.258ZM-172.378 88.258" fill-rule="evenodd"/>
<path transform="matrix(.00222425,-1,1,.00222425,0,0)" stroke-width=".4747" stroke-linecap="butt" stroke-miterlimit="4" stroke-linejoin="miter" fill="none" stroke="#000000" d="M-172.378 88.258C-173.447 88.616-174.872 89.326-175.581 90.039-175.581 90.039-175.58 88.617-174.87 88.26-175.582 87.902-175.581 86.48-175.581 86.48-174.869 87.19-173.445 87.901-172.378 88.258ZM-172.378 88.258"/>
<path stroke-width=".798072" stroke-linecap="butt" stroke-miterlimit="4" stroke-linejoin="miter" fill="none" stroke="#000000" d="M48.047 172.086 48.031 182.312"/>
<path transform="matrix(.00144148,-1,1,.00144148,0,0)" d="M-169.622 48.295C-170.82 48.695-172.417 49.495-173.213 50.293-173.213 50.293-173.215 48.695-172.415 48.295-173.216 47.898-173.215 46.3-173.215 46.3-172.416 47.1-170.822 47.899-169.622 48.295ZM-169.622 48.295" fill-rule="evenodd"/>
<path transform="matrix(.00144148,-1,1,.00144148,0,0)" stroke-width=".532047" stroke-linecap="butt" stroke-miterlimit="4" stroke-linejoin="miter" fill="none" stroke="#000000" d="M-169.622 48.295C-170.82 48.695-172.417 49.495-173.213 50.293-173.213 50.293-173.215 48.695-172.415 48.295-173.216 47.898-173.215 46.3-173.215 46.3-172.416 47.1-170.822 47.899-169.622 48.295ZM-169.622 48.295"/>
<path stroke-width=".716825" stroke-linecap="butt" stroke-miterlimit="4" stroke-linejoin="miter" fill="none" stroke="#000000" d="M47.781 215 47.766 222.703"/>
<path transform="matrix(.00191348,-1,1,.00191348,0,0)" d="M-212.755 48.192C-213.833 48.55-215.265 49.267-215.982 49.984-215.982 49.984-215.981 48.55-215.267 48.189-215.983 47.831-215.982 46.398-215.982 46.398-215.265 47.115-213.834 47.831-212.755 48.192ZM-212.755 48.192" fill-rule="evenodd"/>
<path transform="matrix(.00191348,-1,1,.00191348,0,0)" stroke-width=".477883" stroke-linecap="butt" stroke-miterlimit="4" stroke-linejoin="miter" fill="none" stroke="#000000" d="M-212.755 48.192C-213.833 48.55-215.265 49.267-215.982 49.984-215.982 49.984-215.981 48.55-215.267 48.189-215.983 47.831-215.982 46.398-215.982 46.398-215.265 47.115-213.834 47.831-212.755 48.192ZM-212.755 48.192"/>
<path stroke-width=".792992" stroke-linecap="butt" stroke-miterlimit="4" stroke-linejoin="miter" fill="none" stroke="#000000" d="M48.031 131.855 48.02 144.965"/>
<path transform="matrix(.000951406,-1,1,.000951406,0,0)" d="M-129.431 48.154C-130.618 48.554-132.203 49.345-132.999 50.138-132.999 50.138-132.997 48.552-132.204 48.157-132.998 47.759-132.999 46.173-132.999 46.173-132.205 46.966-130.619 47.761-129.431 48.154ZM-129.431 48.154" fill-rule="evenodd"/>
<path transform="matrix(.000951406,-1,1,.000951406,0,0)" stroke-width=".528661" stroke-linecap="butt" stroke-miterlimit="4" stroke-linejoin="miter" fill="none" stroke="#000000" d="M-129.431 48.154C-130.618 48.554-132.203 49.345-132.999 50.138-132.999 50.138-132.997 48.552-132.204 48.157-132.998 47.759-132.999 46.173-132.999 46.173-132.205 46.966-130.619 47.761-129.431 48.154ZM-129.431 48.154"/>
<path stroke-width=".737008" stroke-linecap="butt" stroke-miterlimit="4" stroke-linejoin="miter" fill="none" stroke="#000000" d="M87.047 92.484 87.035 105.23"/>
<path transform="matrix(.00106762,-1,1,.00106762,0,0)" d="M-90.18 87.147C-91.285 87.515-92.761 88.251-93.499 88.99-93.499 88.99-93.496 87.514-92.759 87.146-93.497 86.78-93.499 85.303-93.499 85.303-92.76 86.04-91.286 86.777-90.18 87.147ZM-90.18 87.147" fill-rule="evenodd"/>
<path transform="matrix(.00106762,-1,1,.00106762,0,0)" stroke-width=".491338" stroke-linecap="butt" stroke-miterlimit="4" stroke-linejoin="miter" fill="none" stroke="#000000" d="M-90.18 87.147C-91.285 87.515-92.761 88.251-93.499 88.99-93.499 88.99-93.496 87.514-92.759 87.146-93.497 86.78-93.499 85.303-93.499 85.303-92.76 86.04-91.286 86.777-90.18 87.147ZM-90.18 87.147"/>
<path stroke-width=".737008" stroke-linecap="butt" stroke-miterlimit="4" stroke-linejoin="miter" fill="none" stroke="#000000" d="M86.293 50.539 86.281 67.477"/>
<path transform="matrix(.000669526,-1,1,.000669526,0,0)" d="M-48.27 86.325C-49.376 86.693-50.852 87.432-51.589 88.167-51.589 88.167-51.586 86.695-50.852 86.323-51.587 85.956-51.588 84.484-51.588 84.484-50.849 85.218-49.376 85.955-48.27 86.325ZM-48.27 86.325" fill-rule="evenodd"/>
<path transform="matrix(.000669526,-1,1,.000669526,0,0)" stroke-width=".491338" stroke-linecap="butt" stroke-miterlimit="4" stroke-linejoin="miter" fill="none" stroke="#000000" d="M-48.27 86.325C-49.376 86.693-50.852 87.432-51.589 88.167-51.589 88.167-51.586 86.695-50.852 86.323-51.587 85.956-51.588 84.484-51.588 84.484-50.849 85.218-49.376 85.955-48.27 86.325ZM-48.27 86.325"/>
<path stroke-width=".793701" stroke-linecap="butt" stroke-miterlimit="4" stroke-linejoin="miter" fill="none" stroke="#000000" d="M121.867 89.559 121.852 100.297"/>
<path transform="matrix(-.00142571,1,-1,-.00142571,0,0)" d="M102.506-121.994C101.315-121.598 99.726-120.802 98.934-120.008 98.934-120.008 98.932-121.598 99.725-121.994 98.931-122.391 98.933-123.977 98.933-123.977 99.727-123.185 101.314-122.391 102.506-121.994ZM102.506-121.994" fill-rule="evenodd"/>
<path transform="matrix(-.00142571,1,-1,-.00142571,0,0)" stroke-width=".529133" stroke-linecap="butt" stroke-miterlimit="4" stroke-linejoin="miter" fill="none" stroke="#000000" d="M102.506-121.994C101.315-121.598 99.726-120.802 98.934-120.008 98.934-120.008 98.932-121.598 99.725-121.994 98.931-122.391 98.933-123.977 98.933-123.977 99.727-123.185 101.314-122.391 102.506-121.994ZM102.506-121.994"/>
<path stroke-width=".793701" stroke-linecap="butt" stroke-miterlimit="4" stroke-linejoin="miter" fill="none" stroke="#000000" d="M122.68 131.957 122.664 142.695"/>
<path transform="matrix(-.00142571,1,-1,-.00142571,0,0)" d="M144.903-122.867C143.712-122.471 142.123-121.679 141.332-120.885 141.332-120.885 141.329-122.471 142.122-122.867 141.328-123.264 141.33-124.854 141.33-124.854 142.124-124.058 143.711-123.263 144.903-122.867ZM144.903-122.867" fill-rule="evenodd"/>
<path transform="matrix(-.00142571,1,-1,-.00142571,0,0)" stroke-width=".529133" stroke-linecap="butt" stroke-miterlimit="4" stroke-linejoin="miter" fill="none" stroke="#000000" d="M144.903-122.867C143.712-122.471 142.123-121.679 141.332-120.885 141.332-120.885 141.329-122.471 142.122-122.867 141.328-123.264 141.33-124.854 141.33-124.854 142.124-124.058 143.711-123.263 144.903-122.867ZM144.903-122.867"/>
<path stroke-width=".902072" stroke-linecap="butt" stroke-miterlimit="4" stroke-linejoin="miter" fill="none" stroke="#000000" d="M82.852 171.477 82.832 178.863"/>
<path transform="matrix(-.00287676,1,-1,-.00287676,0,0)" d="M181.331-83.346C179.98-82.893 178.174-81.993 177.271-81.092 177.271-81.092 177.273-82.893 178.174-83.345 177.271-83.795 177.273-85.6 177.273-85.6 178.174-84.7 179.978-83.795 181.331-83.346ZM181.331-83.346" fill-rule="evenodd"/>
<path transform="matrix(-.00287676,1,-1,-.00287676,0,0)" stroke-width=".601379" stroke-linecap="butt" stroke-miterlimit="4" stroke-linejoin="miter" fill="none" stroke="#000000" d="M181.331-83.346C179.98-82.893 178.174-81.993 177.271-81.092 177.271-81.092 177.273-82.893 178.174-83.345 177.271-83.795 177.273-85.6 177.273-85.6 178.174-84.7 179.978-83.795 181.331-83.346ZM181.331-83.346"/>
<path stroke-width=".793701" stroke-linecap="butt" stroke-miterlimit="4" stroke-linejoin="miter" fill="none" stroke="#000000" d="M43.594 212.098 43.574 219.488"/>
<path transform="matrix(-.00287676,1,-1,-.00287676,0,0)" d="M221.74-44.204C220.55-43.806 218.962-43.013 218.168-42.217 218.168-42.217 218.167-43.807 218.963-44.204 218.169-44.6 218.168-46.186 218.168-46.186 218.963-45.396 220.551-44.599 221.74-44.204ZM221.74-44.204" fill-rule="evenodd"/>
<path transform="matrix(-.00287676,1,-1,-.00287676,0,0)" stroke-width=".529132" stroke-linecap="butt" stroke-miterlimit="4" stroke-linejoin="miter" fill="none" stroke="#000000" d="M221.74-44.204C220.55-43.806 218.962-43.013 218.168-42.217 218.168-42.217 218.167-43.807 218.963-44.204 218.169-44.6 218.168-46.186 218.168-46.186 218.963-45.396 220.551-44.599 221.74-44.204ZM221.74-44.204"/>
<path stroke-width=".737008" stroke-linecap="butt" stroke-miterlimit="4" stroke-linejoin="miter" fill="none" stroke="#000000" d="M82.098 47.297 82.086 64.504"/>
<path transform="matrix(-.000757808,1,-1,-.000757808,0,0)" d="M66.653-82.136C65.547-81.765 64.071-81.029 63.334-80.294 63.334-80.294 63.336-81.767 64.071-82.134 63.336-82.505 63.335-83.978 63.335-83.978 64.074-83.24 65.547-82.503 66.653-82.136ZM66.653-82.136" fill-rule="evenodd"/>
<path transform="matrix(-.000757808,1,-1,-.000757808,0,0)" stroke-width=".491338" stroke-linecap="butt" stroke-miterlimit="4" stroke-linejoin="miter" fill="none" stroke="#000000" d="M66.653-82.136C65.547-81.765 64.071-81.029 63.334-80.294 63.334-80.294 63.336-81.767 64.071-82.134 63.336-82.505 63.335-83.978 63.335-83.978 64.074-83.24 65.547-82.503 66.653-82.136ZM66.653-82.136"/>
<path stroke-width=".793701" stroke-linecap="butt" stroke-miterlimit="4" stroke-linejoin="miter" fill="none" stroke="#000000" d="M76.895 40.195 54.785 40.352"/>
<path transform="matrix(-1,.00702573,-.00702573,-1,0,0)" d="M-52.116-40.733C-53.306-40.335-54.894-39.542-55.689-38.747-55.689-38.747-55.689-40.337-54.894-40.733-55.688-41.13-55.688-42.715-55.688-42.715-54.893-41.925-53.309-41.128-52.116-40.733ZM-52.116-40.733" fill-rule="evenodd"/>
<path transform="matrix(-1,.00702573,-.00702573,-1,0,0)" stroke-width=".529121" stroke-linecap="butt" stroke-miterlimit="4" stroke-linejoin="miter" fill="none" stroke="#000000" d="M-52.116-40.733C-53.306-40.335-54.894-39.542-55.689-38.747-55.689-38.747-55.689-40.337-54.894-40.733-55.688-41.13-55.688-42.715-55.688-42.715-54.893-41.925-53.309-41.128-52.116-40.733ZM-52.116-40.733"/>
<path stroke-width=".793701" stroke-linecap="butt" stroke-miterlimit="4" stroke-linejoin="miter" fill="none" stroke="#000000" d="M38.438 79.441 16.988 79.602"/>
<path transform="matrix(-1,.00738133,-.00738133,-1,0,0)" d="M-14.017-79.721C-15.211-79.327-16.795-78.53-17.59-77.739-17.59-77.739-17.59-79.325-16.798-79.722-17.592-80.118-17.592-81.708-17.592-81.708-16.797-80.913-15.209-80.12-14.017-79.721ZM-14.017-79.721" fill-rule="evenodd"/>
<path transform="matrix(-1,.00738133,-.00738133,-1,0,0)" stroke-width=".529119" stroke-linecap="butt" stroke-miterlimit="4" stroke-linejoin="miter" fill="none" stroke="#000000" d="M-14.017-79.721C-15.211-79.327-16.795-78.53-17.59-77.739-17.59-77.739-17.59-79.325-16.798-79.722-17.592-80.118-17.592-81.708-17.592-81.708-16.797-80.913-15.209-80.12-14.017-79.721ZM-14.017-79.721"/>
<path stroke-width=".793701" stroke-linecap="butt" stroke-miterlimit="4" stroke-linejoin="miter" fill="none" stroke="#000000" d="M35.348 117.18 16.676 117.352"/>
<path transform="matrix(-1,.00923854,-.00923854,-1,0,0)" d="M-13.211-117.497C-14.399-117.098-15.988-116.308-16.781-115.51-16.781-115.51-16.781-117.1-15.989-117.495-16.782-117.893-16.783-119.479-16.783-119.479-15.989-118.687-14.399-117.895-13.211-117.497ZM-13.211-117.497" fill-rule="evenodd"/>
<path transform="matrix(-1,.00923854,-.00923854,-1,0,0)" stroke-width=".529111" stroke-linecap="butt" stroke-miterlimit="4" stroke-linejoin="miter" fill="none" stroke="#000000" d="M-13.211-117.497C-14.399-117.098-15.988-116.308-16.781-115.51-16.781-115.51-16.781-117.1-15.989-117.495-16.782-117.893-16.783-119.479-16.783-119.479-15.989-118.687-14.399-117.895-13.211-117.497ZM-13.211-117.497"/>
<path stroke-width=".793701" stroke-linecap="butt" stroke-miterlimit="4" stroke-linejoin="miter" fill="none" stroke="#000000" d="M111.918 156.465 102.641 156.723"/>
<path transform="matrix(-1,.0275353,-.0275353,-1,0,0)" d="M-95.868-159.429C-97.059-159.032-98.647-158.236-99.438-157.445-99.438-157.445-99.441-159.031-98.645-159.427-99.439-159.824-99.438-161.41-99.438-161.41-98.648-160.619-97.06-159.825-95.868-159.429ZM-95.868-159.429" fill-rule="evenodd"/>
<path transform="matrix(-1,.0275353,-.0275353,-1,0,0)" stroke-width=".528933" stroke-linecap="butt" stroke-miterlimit="4" stroke-linejoin="miter" fill="none" stroke="#000000" d="M-95.868-159.429C-97.059-159.032-98.647-158.236-99.438-157.445-99.438-157.445-99.441-159.031-98.645-159.427-99.439-159.824-99.438-161.41-99.438-161.41-98.648-160.619-97.06-159.825-95.868-159.429ZM-95.868-159.429"/>
<path stroke-width=".783394" stroke-linecap="butt" stroke-miterlimit="4" stroke-linejoin="miter" fill="none" stroke="#000000" d="M70.469 156.633 61.191 156.887"/>
<path transform="matrix(-1,.0275384,-.0275384,-1,0,0)" d="M-54.476-158.453C-55.651-158.06-57.22-157.279-58.003-156.496-58.003-156.496-58.003-158.062-57.218-158.455-58.001-158.843-58.001-160.41-58.001-160.41-57.217-159.626-55.653-158.845-54.476-158.453ZM-54.476-158.453" fill-rule="evenodd"/>
<path transform="matrix(-1,.0275384,-.0275384,-1,0,0)" stroke-width=".522065" stroke-linecap="butt" stroke-miterlimit="4" stroke-linejoin="miter" fill="none" stroke="#000000" d="M-54.476-158.453C-55.651-158.06-57.22-157.279-58.003-156.496-58.003-156.496-58.003-158.062-57.218-158.455-58.001-158.843-58.001-160.41-58.001-160.41-57.217-159.626-55.653-158.845-54.476-158.453ZM-54.476-158.453"/>
<path stroke-width=".793701" stroke-linecap="butt" stroke-miterlimit="4" stroke-linejoin="miter" fill="none" stroke="#000000" d="M34.289 157.039 16.574 157.207"/>
<path transform="matrix(-1,.00938471,-.00938471,-1,0,0)" d="M-12.715-157.35C-13.906-156.951-15.492-156.157-16.288-155.364-16.288-155.364-16.285-156.954-15.492-157.349-16.285-157.747-16.286-159.333-16.286-159.333-15.493-158.54-13.906-157.744-12.715-157.35ZM-12.715-157.35" fill-rule="evenodd"/>
<path transform="matrix(-1,.00938471,-.00938471,-1,0,0)" stroke-width=".529111" stroke-linecap="butt" stroke-miterlimit="4" stroke-linejoin="miter" fill="none" stroke="#000000" d="M-12.715-157.35C-13.906-156.951-15.492-156.157-16.288-155.364-16.288-155.364-16.285-156.954-15.492-157.349-16.285-157.747-16.286-159.333-16.286-159.333-15.493-158.54-13.906-157.744-12.715-157.35ZM-12.715-157.35"/>
<path stroke-width=".902072" stroke-linecap="butt" stroke-miterlimit="4" stroke-linejoin="miter" fill="none" stroke="#000000" d="M74.926 195.801 64 196.023"/>
<path transform="matrix(-1,.0201719,-.0201719,-1,0,0)" d="M-57.318-197.23C-58.671-196.781-60.475-195.88-61.376-194.976-61.376-194.976-61.374-196.781-60.475-197.232-61.376-197.683-61.374-199.488-61.374-199.488-60.475-198.587-58.669-197.683-57.318-197.23ZM-57.318-197.23" fill-rule="evenodd"/>
<path transform="matrix(-1,.0201719,-.0201719,-1,0,0)" stroke-width=".601259" stroke-linecap="butt" stroke-miterlimit="4" stroke-linejoin="miter" fill="none" stroke="#000000" d="M-57.318-197.23C-58.671-196.781-60.475-195.88-61.376-194.976-61.376-194.976-61.374-196.781-60.475-197.232-61.376-197.683-61.374-199.488-61.374-199.488-60.475-198.587-58.669-197.683-57.318-197.23ZM-57.318-197.23"/>
<path stroke-width=".793701" stroke-linecap="butt" stroke-miterlimit="4" stroke-linejoin="miter" fill="none" stroke="#000000" d="M31.715 196.625 16.43 196.805"/>
<path transform="matrix(-1,.0116275,-.0116275,-1,0,0)" d="M-11.761-196.969C-12.949-196.572-14.536-195.778-15.33-194.983-15.33-194.983-15.332-196.573-14.538-196.97-15.33-197.366-15.331-198.952-15.331-198.952-14.536-198.157-12.951-197.365-11.761-196.969ZM-11.761-196.969" fill-rule="evenodd"/>
<path transform="matrix(-1,.0116275,-.0116275,-1,0,0)" stroke-width=".529098" stroke-linecap="butt" stroke-miterlimit="4" stroke-linejoin="miter" fill="none" stroke="#000000" d="M-11.761-196.969C-12.949-196.572-14.536-195.778-15.33-194.983-15.33-194.983-15.332-196.573-14.538-196.97-15.33-197.366-15.331-198.952-15.331-198.952-14.536-198.157-12.951-197.365-11.761-196.969ZM-11.761-196.969"/>
<path stroke-width=".902072" stroke-linecap="butt" stroke-miterlimit="4" stroke-linejoin="miter" fill="none" stroke="#000000" d="M154.48 117.145 141.988 117.363"/>
<path transform="matrix(-1,.017496,-.017496,-1,0,0)" d="M-137.185-119.81C-138.537-119.361-140.342-118.459-141.244-117.557-141.244-117.557-141.244-119.362-140.341-119.811-141.244-120.264-141.243-122.065-141.243-122.065-140.341-121.166-138.536-120.264-137.185-119.81ZM-137.185-119.81" fill-rule="evenodd"/>
<path transform="matrix(-1,.017496,-.017496,-1,0,0)" stroke-width=".601289" stroke-linecap="butt" stroke-miterlimit="4" stroke-linejoin="miter" fill="none" stroke="#000000" d="M-137.185-119.81C-138.537-119.361-140.342-118.459-141.244-117.557-141.244-117.557-141.244-119.362-140.341-119.811-141.244-120.264-141.243-122.065-141.243-122.065-140.341-121.166-138.536-120.264-137.185-119.81ZM-137.185-119.81"/>
<path stroke-width=".793701" stroke-linecap="butt" stroke-miterlimit="4" stroke-linejoin="miter" fill="none" stroke="#000000" d="M110.051 117.129 99.418 117.371"/>
<path transform="matrix(-1,.0226831,-.0226831,-1,0,0)" d="M-94.327-119.565C-95.516-119.167-97.104-118.374-97.895-117.58-97.895-117.58-97.895-119.166-97.104-119.566-97.896-119.963-97.895-121.549-97.895-121.549-97.105-120.753-95.517-119.96-94.327-119.565ZM-94.327-119.565" fill-rule="evenodd"/>
<path transform="matrix(-1,.0226831,-.0226831,-1,0,0)" stroke-width=".528998" stroke-linecap="butt" stroke-miterlimit="4" stroke-linejoin="miter" fill="none" stroke="#000000" d="M-94.327-119.565C-95.516-119.167-97.104-118.374-97.895-117.58-97.895-117.58-97.895-119.166-97.104-119.566-97.896-119.963-97.895-121.549-97.895-121.549-97.105-120.753-95.517-119.96-94.327-119.565ZM-94.327-119.565"/>
<path stroke-width=".793701" stroke-linecap="butt" stroke-miterlimit="4" stroke-linejoin="miter" fill="none" stroke="#000000" d="M72.113 117.141 60.16 117.367"/>
<path transform="matrix(-1,.0187424,-.0187424,-1,0,0)" d="M-55.561-118.452C-56.748-118.056-58.337-117.261-59.13-116.468-59.13-116.468-59.131-118.054-58.339-118.453-59.132-118.847-59.129-120.436-59.129-120.436-58.336-119.64-56.749-118.849-55.561-118.452ZM-55.561-118.452" fill-rule="evenodd"/>
<path transform="matrix(-1,.0187424,-.0187424,-1,0,0)" stroke-width=".529041" stroke-linecap="butt" stroke-miterlimit="4" stroke-linejoin="miter" fill="none" stroke="#000000" d="M-55.561-118.452C-56.748-118.056-58.337-117.261-59.13-116.468-59.13-116.468-59.131-118.054-58.339-118.453-59.132-118.847-59.129-120.436-59.129-120.436-58.336-119.64-56.749-118.849-55.561-118.452ZM-55.561-118.452"/>
<path stroke-width=".790435" stroke-linecap="butt" stroke-miterlimit="4" stroke-linejoin="miter" fill="none" stroke="#000000" d="M160.648 51.176 160.766 60.809"/>
<path transform="matrix(.0119796,1,-1,.0119796,0,0)" d="M65.097-160.013C63.908-159.617 62.328-158.828 61.538-158.036 61.538-158.036 61.537-159.618 62.327-160.015 61.539-160.407 61.538-161.989 61.538-161.989 62.33-161.199 63.91-160.41 65.097-160.013ZM65.097-160.013" fill-rule="evenodd"/>
<path transform="matrix(.0119796,1,-1,.0119796,0,0)" stroke-width=".526919" stroke-linecap="butt" stroke-miterlimit="4" stroke-linejoin="miter" fill="none" stroke="#000000" d="M65.097-160.013C63.908-159.617 62.328-158.828 61.538-158.036 61.538-158.036 61.537-159.618 62.327-160.015 61.539-160.407 61.538-161.989 61.538-161.989 62.33-161.199 63.91-160.41 65.097-160.013ZM65.097-160.013"/>
<path stroke-width=".708661" stroke-linecap="butt" stroke-miterlimit="4" stroke-linejoin="miter" fill="none" stroke="#000000" d="M161.938 92.742 162.051 102.375"/>
<path transform="matrix(.0119796,1,-1,.0119796,0,0)" d="M106.426-160.803C105.364-160.449 103.945-159.739 103.237-159.033 103.237-159.033 103.238-160.447 103.946-160.802 103.239-161.158 103.237-162.576 103.237-162.576 103.947-161.864 105.364-161.156 106.426-160.803ZM106.426-160.803" fill-rule="evenodd"/>
<path transform="matrix(.0119796,1,-1,.0119796,0,0)" stroke-width=".472407" stroke-linecap="butt" stroke-miterlimit="4" stroke-linejoin="miter" fill="none" stroke="#000000" d="M106.426-160.803C105.364-160.449 103.945-159.739 103.237-159.033 103.237-159.033 103.238-160.447 103.946-160.802 103.239-161.158 103.237-162.576 103.237-162.576 103.947-161.864 105.364-161.156 106.426-160.803ZM106.426-160.803"/>
<path stroke-width=".793701" stroke-linecap="butt" stroke-miterlimit="4" stroke-linejoin="miter" fill="none" stroke="#000000" d="M202.195 53.301 202.324 61.207"/>
<path transform="matrix(.0164722,1,-1,.0164722,0,0)" d="M66.905-201.261C65.715-200.867 64.128-200.073 63.333-199.277 63.333-199.277 63.332-200.867 64.128-201.264 63.334-201.66 63.332-203.246 63.332-203.246 64.128-202.451 65.712-201.66 66.905-201.261ZM66.905-201.261" fill-rule="evenodd"/>
<path transform="matrix(.0164722,1,-1,.0164722,0,0)" stroke-width=".529062" stroke-linecap="butt" stroke-miterlimit="4" stroke-linejoin="miter" fill="none" stroke="#000000" d="M66.905-201.261C65.715-200.867 64.128-200.073 63.333-199.277 63.333-199.277 63.332-200.867 64.128-201.264 63.334-201.66 63.332-203.246 63.332-203.246 64.128-202.451 65.712-201.66 66.905-201.261ZM66.905-201.261"/>
<path stroke-width=".793701" stroke-linecap="butt" stroke-miterlimit="4" stroke-linejoin="miter" fill="none" stroke="#000000" d="M121.863 50.285 121.988 63.77"/>
<path transform="matrix(.00917837,1,-1,.00917837,0,0)" d="M67.267-121.39C66.075-120.995 64.49-120.201 63.694-119.408 63.694-119.408 63.696-120.993 64.489-121.392 63.696-121.786 63.695-123.376 63.695-123.376 64.488-122.58 66.075-121.788 67.267-121.39ZM67.267-121.39" fill-rule="evenodd"/>
<path transform="matrix(.00917837,1,-1,.00917837,0,0)" stroke-width=".529112" stroke-linecap="butt" stroke-miterlimit="4" stroke-linejoin="miter" fill="none" stroke="#000000" d="M67.267-121.39C66.075-120.995 64.49-120.201 63.694-119.408 63.694-119.408 63.696-120.993 64.489-121.392 63.696-121.786 63.695-123.376 63.695-123.376 64.488-122.58 66.075-121.788 67.267-121.39ZM67.267-121.39"/>
<path stroke-width=".793701" stroke-linecap="butt" stroke-miterlimit="4" stroke-linejoin="miter" fill="none" stroke="#000000" d="M163.77 12.477 163.812 25.441"/>
<path transform="matrix(.00317451,1,-1,.00317451,0,0)" d="M28.34-163.73C27.151-163.332 25.563-162.54 24.771-161.746 24.771-161.746 24.768-163.332 25.563-163.731 24.771-164.128 24.768-165.714 24.768-165.714 25.563-164.919 27.15-164.129 28.34-163.73ZM28.34-163.73" fill-rule="evenodd"/>
<path transform="matrix(.00317451,1,-1,.00317451,0,0)" stroke-width=".529131" stroke-linecap="butt" stroke-miterlimit="4" stroke-linejoin="miter" fill="none" stroke="#000000" d="M28.34-163.73C27.151-163.332 25.563-162.54 24.771-161.746 24.771-161.746 24.768-163.332 25.563-163.731 24.771-164.128 24.768-165.714 24.768-165.714 25.563-164.919 27.15-164.129 28.34-163.73ZM28.34-163.73"/>
<path stroke-width=".793514" stroke-linecap="butt" stroke-miterlimit="4" stroke-linejoin="miter" fill="none" stroke="#000000" d="M203.695 12.539 203.793 22.199"/>
<path transform="matrix(.0101795,1,-1,.0101795,0,0)" d="M26.65-203.549C25.459-203.151 23.872-202.359 23.079-201.566 23.079-201.566 23.08-203.152 23.873-203.546 23.08-203.945 23.08-205.531 23.08-205.531 23.873-204.737 25.459-203.944 26.65-203.549ZM26.65-203.549" fill-rule="evenodd"/>
<path transform="matrix(.0101795,1,-1,.0101795,0,0)" stroke-width=".528982" stroke-linecap="butt" stroke-miterlimit="4" stroke-linejoin="miter" fill="none" stroke="#000000" d="M26.65-203.549C25.459-203.151 23.872-202.359 23.079-201.566 23.079-201.566 23.08-203.152 23.873-203.546 23.08-203.945 23.08-205.531 23.08-205.531 23.873-204.737 25.459-203.944 26.65-203.549ZM26.65-203.549"/>
<path stroke-width=".793701" stroke-linecap="butt" stroke-miterlimit="4" stroke-linejoin="miter" fill="none" stroke="#000000" d="M113.629 40.117 95.781 40.293"/>
<path transform="matrix(-1,.00989359,-.00989359,-1,0,0)" d="M-92.994-41.236C-94.186-40.842-95.772-40.045-96.565-39.252-96.565-39.252-96.565-40.838-95.772-41.237-96.565-41.635-96.565-43.221-96.565-43.221-95.772-42.428-94.186-41.635-92.994-41.236ZM-92.994-41.236" fill-rule="evenodd"/>
<path transform="matrix(-1,.00989359,-.00989359,-1,0,0)" stroke-width=".529108" stroke-linecap="butt" stroke-miterlimit="4" stroke-linejoin="miter" fill="none" stroke="#000000" d="M-92.994-41.236C-94.186-40.842-95.772-40.045-96.565-39.252-96.565-39.252-96.565-40.838-95.772-41.237-96.565-41.635-96.565-43.221-96.565-43.221-95.772-42.428-94.186-41.635-92.994-41.236ZM-92.994-41.236"/>
<path stroke-width=".902072" stroke-linecap="butt" stroke-miterlimit="4" stroke-linejoin="miter" fill="none" stroke="#000000" d="M151.703 39.918 138.738 40.133"/>
<path transform="matrix(-1,.0166004,-.0166004,-1,0,0)" d="M-135.331-42.422C-136.682-41.972-138.486-41.072-139.388-40.169-139.388-40.169-139.389-41.974-138.487-42.424-139.39-42.876-139.387-44.677-139.387-44.677-138.488-43.776-136.683-42.874-135.331-42.422ZM-135.331-42.422" fill-rule="evenodd"/>
<path transform="matrix(-1,.0166004,-.0166004,-1,0,0)" stroke-width=".601299" stroke-linecap="butt" stroke-miterlimit="4" stroke-linejoin="miter" fill="none" stroke="#000000" d="M-135.331-42.422C-136.682-41.972-138.486-41.072-139.388-40.169-139.388-40.169-139.389-41.974-138.487-42.424-139.39-42.876-139.387-44.677-139.387-44.677-138.488-43.776-136.683-42.874-135.331-42.422ZM-135.331-42.422"/>
<path stroke-width=".788553" stroke-linecap="butt" stroke-miterlimit="4" stroke-linejoin="miter" fill="none" stroke="#000000" d="M149.113 78.98 140.129 79.246"/>
<path transform="matrix(-1,.0297683,-.0297683,-1,0,0)" d="M-135.285-83.344C-136.468-82.949-138.042-82.164-138.832-81.375-138.832-81.375-138.832-82.949-138.042-83.344-138.831-83.738-138.831-85.316-138.831-85.316-138.042-84.527-136.468-83.738-135.285-83.344ZM-135.285-83.344" fill-rule="evenodd"/>
<path transform="matrix(-1,.0297683,-.0297683,-1,0,0)" stroke-width=".525469" stroke-linecap="butt" stroke-miterlimit="4" stroke-linejoin="miter" fill="none" stroke="#000000" d="M-135.285-83.344C-136.468-82.949-138.042-82.164-138.832-81.375-138.832-81.375-138.832-82.949-138.042-83.344-138.831-83.738-138.831-85.316-138.831-85.316-138.042-84.527-136.468-83.738-135.285-83.344ZM-135.285-83.344"/>
<path stroke-width=".793701" stroke-linecap="butt" stroke-miterlimit="4" stroke-linejoin="miter" fill="none" stroke="#000000" d="M111.309 79.121 97.711 79.328"/>
<path transform="matrix(-1,.0152385,-.0152385,-1,0,0)" d="M-94.101-80.797C-95.29-80.401-96.877-79.609-97.67-78.816-97.67-78.816-97.673-80.402-96.878-80.8-97.673-81.195-97.672-82.781-97.672-82.781-96.88-81.988-95.29-81.194-94.101-80.797ZM-94.101-80.797" fill-rule="evenodd"/>
<path transform="matrix(-1,.0152385,-.0152385,-1,0,0)" stroke-width=".529072" stroke-linecap="butt" stroke-miterlimit="4" stroke-linejoin="miter" fill="none" stroke="#000000" d="M-94.101-80.797C-95.29-80.401-96.877-79.609-97.67-78.816-97.67-78.816-97.673-80.402-96.878-80.8-97.673-81.195-97.672-82.781-97.672-82.781-96.88-81.988-95.29-81.194-94.101-80.797ZM-94.101-80.797"/>
<path stroke-width=".793701" stroke-linecap="butt" stroke-miterlimit="4" stroke-linejoin="miter" fill="none" stroke="#000000" d="M93.379 69.719 112.309 50.836"/>
<path transform="matrix(1,-.99725,.99725,1,0,0)" d="M32.577 81.644C31.734 81.924 30.611 82.487 30.048 83.047 30.048 83.047 30.049 81.923 30.609 81.642 30.048 81.364 30.048 80.239 30.048 80.239 30.61 80.799 31.734 81.361 32.577 81.644ZM32.577 81.644" fill-rule="evenodd"/>
<path transform="matrix(1,-.99725,.99725,1,0,0)" stroke-width=".374669" stroke-linecap="butt" stroke-miterlimit="4" stroke-linejoin="miter" fill="none" stroke="#000000" d="M32.577 81.644C31.734 81.924 30.611 82.487 30.048 83.047 30.048 83.047 30.049 81.923 30.609 81.642 30.048 81.364 30.048 80.239 30.048 80.239 30.61 80.799 31.734 81.361 32.577 81.644ZM32.577 81.644"/>
<path stroke-width=".79302" stroke-linecap="butt" stroke-miterlimit="4" stroke-linejoin="miter" fill="none" stroke="#000000" d="M51.727 73.156 77.312 47.641"/>
<path transform="matrix(1,-.99725,.99725,1,0,0)" d="M16.626 62.542C15.784 62.822 14.66 63.385 14.098 63.946 14.098 63.946 14.1 62.823 14.661 62.542 14.097 62.262 14.1 61.139 14.1 61.139 14.66 61.701 15.783 62.263 16.626 62.542ZM16.626 62.542" fill-rule="evenodd"/>
<path transform="matrix(1,-.99725,.99725,1,0,0)" stroke-width=".374348" stroke-linecap="butt" stroke-miterlimit="4" stroke-linejoin="miter" fill="none" stroke="#000000" d="M16.626 62.542C15.784 62.822 14.66 63.385 14.098 63.946 14.098 63.946 14.1 62.823 14.661 62.542 14.097 62.262 14.1 61.139 14.1 61.139 14.66 61.701 15.783 62.263 16.626 62.542ZM16.626 62.542"/>
<path stroke-width=".793701" stroke-linecap="butt" stroke-miterlimit="4" stroke-linejoin="miter" fill="none" stroke="#000000" d="M174.348 68.727 190.438 52.68"/>
<path transform="matrix(1,-.99725,.99725,1,0,0)" d="M70.827 121.632C69.985 121.913 68.861 122.476 68.298 123.036 68.298 123.036 68.299 121.912 68.86 121.631 68.3 121.35 68.298 120.228 68.298 120.228 68.86 120.788 69.984 121.35 70.827 121.632ZM70.827 121.632" fill-rule="evenodd"/>
<path transform="matrix(1,-.99725,.99725,1,0,0)" stroke-width=".374669" stroke-linecap="butt" stroke-miterlimit="4" stroke-linejoin="miter" fill="none" stroke="#000000" d="M70.827 121.632C69.985 121.913 68.861 122.476 68.298 123.036 68.298 123.036 68.299 121.912 68.86 121.631 68.3 121.35 68.298 120.228 68.298 120.228 68.86 120.788 69.984 121.35 70.827 121.632ZM70.827 121.632"/>
<path stroke-width=".793701" stroke-linecap="butt" stroke-miterlimit="4" stroke-linejoin="miter" fill="none" stroke="#000000" d="M133.656 67.926 149.746 51.879"/>
<path transform="matrix(1,-.99725,.99725,1,0,0)" d="M50.828 100.883C49.985 101.164 48.859 101.725 48.299 102.287 48.299 102.287 48.297 101.164 48.86 100.882 48.299 100.603 48.299 99.479 48.299 99.479 48.861 100.039 49.984 100.601 50.828 100.883ZM50.828 100.883" fill-rule="evenodd"/>
<path transform="matrix(1,-.99725,.99725,1,0,0)" stroke-width=".374669" stroke-linecap="butt" stroke-miterlimit="4" stroke-linejoin="miter" fill="none" stroke="#000000" d="M50.828 100.883C49.985 101.164 48.859 101.725 48.299 102.287 48.299 102.287 48.297 101.164 48.86 100.882 48.299 100.603 48.299 99.479 48.299 99.479 48.861 100.039 49.984 100.601 50.828 100.883ZM50.828 100.883"/>
<path stroke-width=".793701" stroke-linecap="butt" stroke-miterlimit="4" stroke-linejoin="miter" fill="none" stroke="#000000" d="M134.793 106.66 150.887 90.613"/>
<path transform="matrix(1,-.99725,.99725,1,0,0)" d="M32.029 120.874C31.186 121.155 30.064 121.716 29.502 122.28 29.502 122.28 29.502 121.155 30.063 120.875 29.501 120.592 29.502 119.467 29.502 119.467 30.064 120.032 31.187 120.594 32.029 120.874ZM32.029 120.874" fill-rule="evenodd"/>
<path transform="matrix(1,-.99725,.99725,1,0,0)" stroke-width=".374669" stroke-linecap="butt" stroke-miterlimit="4" stroke-linejoin="miter" fill="none" stroke="#000000" d="M32.029 120.874C31.186 121.155 30.064 121.716 29.502 122.28 29.502 122.28 29.502 121.155 30.063 120.875 29.501 120.592 29.502 119.467 29.502 119.467 30.064 120.032 31.187 120.594 32.029 120.874ZM32.029 120.874"/>
<path stroke-width=".793701" stroke-linecap="butt" stroke-miterlimit="4" stroke-linejoin="miter" fill="none" stroke="#000000" d="M93.73 108.57 111.84 90.512"/>
<path transform="matrix(1,-.99725,.99725,1,0,0)" d="M12.504 101.302C11.662 101.583 10.536 102.144 9.975 102.706 9.975 102.706 9.976 101.581 10.537 101.301 9.977 101.02 9.975 99.897 9.975 99.897 10.537 100.458 11.661 101.019 12.504 101.302ZM12.504 101.302" fill-rule="evenodd"/>
<path transform="matrix(1,-.99725,.99725,1,0,0)" stroke-width=".374669" stroke-linecap="butt" stroke-miterlimit="4" stroke-linejoin="miter" fill="none" stroke="#000000" d="M12.504 101.302C11.662 101.583 10.536 102.144 9.975 102.706 9.975 102.706 9.976 101.581 10.537 101.301 9.977 101.02 9.975 99.897 9.975 99.897 10.537 100.458 11.661 101.019 12.504 101.302ZM12.504 101.302"/>
<path stroke-width=".737008" stroke-linecap="butt" stroke-miterlimit="4" stroke-linejoin="miter" fill="none" stroke="#000000" d="M51.602 107.242 72.844 86.059"/>
<path transform="matrix(1,-.99725,.99725,1,0,0)" d="M-4.94 79.569C-5.724 79.831-6.768 80.352-7.289 80.875-7.289 80.875-7.289 79.829-6.767 79.568-7.29 79.309-7.289 78.266-7.289 78.266-6.768 78.786-5.723 79.308-4.94 79.569ZM-4.94 79.569" fill-rule="evenodd"/>
<path transform="matrix(1,-.99725,.99725,1,0,0)" stroke-width=".347907" stroke-linecap="butt" stroke-miterlimit="4" stroke-linejoin="miter" fill="none" stroke="#000000" d="M-4.94 79.569C-5.724 79.831-6.768 80.352-7.289 80.875-7.289 80.875-7.289 79.829-6.767 79.568-7.29 79.309-7.289 78.266-7.289 78.266-6.768 78.786-5.723 79.308-4.94 79.569ZM-4.94 79.569"/>
<path stroke-width=".793701" stroke-linecap="butt" stroke-miterlimit="4" stroke-linejoin="miter" fill="none" stroke="#000000" d="M53.672 147.551 72.191 129.082"/>
<path transform="matrix(1,-.99725,.99725,1,0,0)" d="M-26.66 100.816C-27.502 101.097-28.628 101.658-29.189 102.22-29.189 102.22-29.19 101.097-28.627 100.815-29.191 100.534-29.189 99.411-29.189 99.411-28.626 99.972-27.503 100.533-26.66 100.816ZM-26.66 100.816" fill-rule="evenodd"/>
<path transform="matrix(1,-.99725,.99725,1,0,0)" stroke-width=".374669" stroke-linecap="butt" stroke-miterlimit="4" stroke-linejoin="miter" fill="none" stroke="#000000" d="M-26.66 100.816C-27.502 101.097-28.628 101.658-29.189 102.22-29.189 102.22-29.19 101.097-28.627 100.815-29.191 100.534-29.189 99.411-29.189 99.411-28.626 99.972-27.503 100.533-26.66 100.816ZM-26.66 100.816"/>
<path stroke-width=".793701" stroke-linecap="butt" stroke-miterlimit="4" stroke-linejoin="miter" fill="none" stroke="#000000" d="M94.047 145.484 110.141 129.438"/>
<path transform="matrix(1,-.99725,.99725,1,0,0)" d="M-7.811 119.965C-8.655 120.248-9.777 120.808-10.34 121.372-10.34 121.372-10.339 120.248-9.778 119.967-10.34 119.685-10.339 118.56-10.339 118.56-9.777 119.124-8.654 119.686-7.811 119.965ZM-7.811 119.965" fill-rule="evenodd"/>
<path transform="matrix(1,-.99725,.99725,1,0,0)" stroke-width=".374669" stroke-linecap="butt" stroke-miterlimit="4" stroke-linejoin="miter" fill="none" stroke="#000000" d="M-7.811 119.965C-8.655 120.248-9.777 120.808-10.34 121.372-10.34 121.372-10.339 120.248-9.778 119.967-10.34 119.685-10.339 118.56-10.339 118.56-9.777 119.124-8.654 119.686-7.811 119.965ZM-7.811 119.965"/>
<path stroke-width=".793701" stroke-linecap="butt" stroke-miterlimit="4" stroke-linejoin="miter" fill="none" stroke="#000000" d="M56.645 186.762 72.734 170.715"/>
<path transform="matrix(1,-.99725,.99725,1,0,0)" d="M-47.204 121.961C-48.046 122.242-49.172 122.803-49.733 123.365-49.733 123.365-49.732 122.24-49.171 121.96-49.733 121.677-49.733 120.556-49.733 120.556-49.171 121.117-48.047 121.679-47.204 121.961ZM-47.204 121.961" fill-rule="evenodd"/>
<path transform="matrix(1,-.99725,.99725,1,0,0)" stroke-width=".374669" stroke-linecap="butt" stroke-miterlimit="4" stroke-linejoin="miter" fill="none" stroke="#000000" d="M-47.204 121.961C-48.046 122.242-49.172 122.803-49.733 123.365-49.733 123.365-49.732 122.24-49.171 121.96-49.733 121.677-49.733 120.556-49.733 120.556-49.171 121.117-48.047 121.679-47.204 121.961ZM-47.204 121.961"/>
<path stroke-width=".793701" stroke-linecap="butt" stroke-miterlimit="4" stroke-linejoin="miter" fill="none" stroke="#000000" d="M73.992 79.066 55.773 79.238"/>
<path transform="matrix(-1,.00927132,-.00927132,-1,0,0)" d="M-52.655-79.746C-53.846-79.351-55.432-78.557-56.224-77.763-56.224-77.763-56.225-79.349-55.433-79.748-56.226-80.142-56.227-81.732-56.227-81.732-55.433-80.936-53.847-80.144-52.655-79.746ZM-52.655-79.746" fill-rule="evenodd"/>
<path transform="matrix(-1,.00927132,-.00927132,-1,0,0)" stroke-width=".529111" stroke-linecap="butt" stroke-miterlimit="4" stroke-linejoin="miter" fill="none" stroke="#000000" d="M-52.655-79.746C-53.846-79.351-55.432-78.557-56.224-77.763-56.224-77.763-56.225-79.349-55.433-79.748-56.226-80.142-56.227-81.732-56.227-81.732-55.433-80.936-53.847-80.144-52.655-79.746ZM-52.655-79.746"/>
<path stroke-width=".829191" stroke-linecap="butt" stroke-miterlimit="4" stroke-linejoin="miter" fill="none" stroke="#000000" d="M189.332 39.762 177.793 39.992"/>
<path transform="matrix(-1,.019942,-.019942,-1,0,0)" d="M-174.437-43.522C-175.683-43.105-177.341-42.275-178.17-41.448-178.17-41.448-178.168-43.104-177.339-43.521-178.171-43.936-178.169-45.592-178.169-45.592-177.342-44.763-175.682-43.933-174.437-43.522ZM-174.437-43.522" fill-rule="evenodd"/>
<path transform="matrix(-1,.019942,-.019942,-1,0,0)" stroke-width=".552684" stroke-linecap="butt" stroke-miterlimit="4" stroke-linejoin="miter" fill="none" stroke="#000000" d="M-174.437-43.522C-175.683-43.105-177.341-42.275-178.17-41.448-178.17-41.448-178.168-43.104-177.339-43.521-178.171-43.936-178.169-45.592-178.169-45.592-177.342-44.763-175.682-43.933-174.437-43.522ZM-174.437-43.522"/>
<path stroke-width=".793701" stroke-linecap="butt" stroke-miterlimit="4" stroke-linejoin="miter" fill="none" stroke="#000000" d="M124.219 13.477 124.344 26.961"/>
<path transform="matrix(.00917837,1,-1,.00917837,0,0)" d="M30.483-124.087C29.292-123.688 27.702-122.894 26.91-122.101 26.91-122.101 26.909-123.691 27.705-124.086 26.912-124.483 26.911-126.069 26.911-126.069 27.705-125.277 29.291-124.481 30.483-124.087ZM30.483-124.087" fill-rule="evenodd"/>
<path transform="matrix(.00917837,1,-1,.00917837,0,0)" stroke-width=".529112" stroke-linecap="butt" stroke-miterlimit="4" stroke-linejoin="miter" fill="none" stroke="#000000" d="M30.483-124.087C29.292-123.688 27.702-122.894 26.91-122.101 26.91-122.101 26.909-123.691 27.705-124.086 26.912-124.483 26.911-126.069 26.911-126.069 27.705-125.277 29.291-124.481 30.483-124.087ZM30.483-124.087"/>
<path d="M157.91 188C157.91 190.609 155.793 192.727 153.18 192.727 150.57 192.727 148.453 190.609 148.453 188 148.453 185.391 150.57 183.277 153.18 183.277 155.793 183.277 157.91 185.391 157.91 188ZM157.91 188"/>
<path d="M157.508 188.008C157.508 190.406 155.566 192.348 153.168 192.348 150.773 192.348 148.832 190.406 148.832 188.008 148.832 185.609 150.773 183.668 153.168 183.668 155.566 183.668 157.508 185.609 157.508 188.008ZM157.508 188.008" fill="#0080ff"/>
<path d="M158.152 198.602C158.152 201.211 156.039 203.328 153.426 203.328 150.816 203.328 148.699 201.211 148.699 198.602 148.699 195.992 150.816 193.879 153.426 193.879 156.039 193.879 158.152 195.992 158.152 198.602ZM158.152 198.602"/>
<path d="M157.75 198.609C157.75 201.008 155.809 202.949 153.414 202.949 151.02 202.949 149.078 201.008 149.078 198.609 149.078 196.211 151.02 194.27 153.414 194.27 155.809 194.27 157.75 196.211 157.75 198.609ZM157.75 198.609" fill="#eb893b"/>
<text xml:space="preserve" transform="matrix(1 0 0 1 0 0)" font-size="3.800002" font-family="DejaVuSans"><tspan y="188.89572" x="160.2128">N</tspan></text>
<path stroke-width=".141732" stroke-linecap="butt" stroke-miterlimit="4" stroke-linejoin="miter" fill="none" stroke="#000000" d="M160.586 186.129H161.086L162.32 188.441V186.129H162.68V188.895H162.18L160.945 186.582V188.895H160.586ZM160.586 186.129"/>
<text xml:space="preserve" transform="matrix(1 0 0 1 0 0)" font-size="3.800002" font-family="DejaVuSans"><tspan y="188.89572" x="163.05539">o</tspan></text>
<path stroke-width=".141732" stroke-linecap="butt" stroke-miterlimit="4" stroke-linejoin="miter" fill="none" stroke="#000000" d="M164.211 187.051C164.031 187.051 163.887 187.125 163.773 187.27 163.668 187.418 163.617 187.613 163.617 187.863 163.617 188.113 163.668 188.312 163.773 188.457 163.887 188.594 164.031 188.66 164.211 188.66 164.398 188.66 164.543 188.59 164.648 188.441 164.75 188.297 164.805 188.105 164.805 187.863 164.805 187.613 164.75 187.418 164.648 187.27 164.543 187.125 164.398 187.051 164.211 187.051ZM164.211 186.77C164.512 186.77 164.746 186.871 164.914 187.066 165.078 187.254 165.164 187.52 165.164 187.863 165.164 188.199 165.078 188.465 164.914 188.66 164.746 188.848 164.512 188.941 164.211 188.941 163.918 188.941 163.684 188.848 163.508 188.66 163.34 188.465 163.258 188.199 163.258 187.863 163.258 187.52 163.34 187.254 163.508 187.066 163.684 186.871 163.918 186.77 164.211 186.77ZM164.211 186.77"/>
<text xml:space="preserve" transform="matrix(1 0 0 1 0 0)" font-size="3.800002" font-family="DejaVuSans"><tspan y="188.89572" x="165.3803">n</tspan></text>
<path stroke-width=".141732" stroke-linecap="butt" stroke-miterlimit="4" stroke-linejoin="miter" fill="none" stroke="#000000" d="M167.457 187.645V188.895H167.129V187.66C167.129 187.465 167.086 187.316 167.004 187.223 166.93 187.121 166.816 187.066 166.66 187.066 166.473 187.066 166.324 187.125 166.223 187.238 166.117 187.355 166.066 187.516 166.066 187.723V188.895H165.723V186.816H166.066V187.145C166.148 187.02 166.242 186.926 166.348 186.863 166.461 186.801 166.59 186.77 166.738 186.77 166.977 186.77 167.152 186.844 167.27 186.988 167.395 187.137 167.457 187.355 167.457 187.645ZM167.457 187.645"/>
<text xml:space="preserve" transform="matrix(1 0 0 1 0 0)" font-size="3.800002" font-family="DejaVuSans"><tspan y="188.89572" x="167.7887">-</tspan></text>
<path stroke-width=".141732" stroke-linecap="butt" stroke-miterlimit="4" stroke-linejoin="miter" fill="none" stroke="#000000" d="M167.977 187.707H168.977V188.004H167.977Z"/>
<text xml:space="preserve" transform="matrix(1 0 0 1 0 0)" font-size="3.800002" font-family="DejaVuSans"><tspan y="188.89572" x="169.15988">p</tspan></text>
<path stroke-width=".141732" stroke-linecap="butt" stroke-miterlimit="4" stroke-linejoin="miter" fill="none" stroke="#000000" d="M169.848 188.582V189.691H169.504V186.816H169.848V187.129C169.918 187.004 170.008 186.918 170.113 186.863 170.227 186.801 170.355 186.77 170.504 186.77 170.762 186.77 170.973 186.871 171.129 187.066 171.285 187.266 171.363 187.531 171.363 187.863 171.363 188.188 171.285 188.449 171.129 188.645 170.973 188.844 170.762 188.941 170.504 188.941 170.355 188.941 170.227 188.914 170.113 188.863 170.008 188.801 169.918 188.707 169.848 188.582ZM171.004 187.863C171.004 187.613 170.949 187.418 170.848 187.27 170.742 187.125 170.602 187.051 170.426 187.051 170.246 187.051 170.105 187.125 170.004 187.27 169.898 187.418 169.848 187.613 169.848 187.863 169.848 188.113 169.898 188.312 170.004 188.457 170.105 188.594 170.246 188.66 170.426 188.66 170.602 188.66 170.742 188.594 170.848 188.457 170.949 188.312 171.004 188.113 171.004 187.863ZM171.004 187.863"/>
<text xml:space="preserve" transform="matrix(1 0 0 1 0 0)" font-size="3.800002" font-family="DejaVuSans"><tspan y="188.89572" x="171.57199">r</tspan></text>
<path stroke-width=".141732" stroke-linecap="butt" stroke-miterlimit="4" stroke-linejoin="miter" fill="none" stroke="#000000" d="M173.133 187.145C173.09 187.113 173.047 187.094 173.008 187.082 172.965 187.074 172.914 187.066 172.852 187.066 172.664 187.066 172.516 187.129 172.414 187.254 172.309 187.379 172.258 187.562 172.258 187.801V188.895H171.914V186.816H172.258V187.145C172.328 187.02 172.422 186.926 172.539 186.863 172.652 186.801 172.793 186.77 172.961 186.77 172.98 186.77 173 186.77 173.023 186.77 173.055 186.77 173.09 186.777 173.133 186.785ZM173.133 187.145"/>
<text xml:space="preserve" transform="matrix(1 0 0 1 0 0)" font-size="3.800002" font-family="DejaVuSans"><tspan y="188.89572" x="173.0508">o</tspan></text>
<path stroke-width=".141732" stroke-linecap="butt" stroke-miterlimit="4" stroke-linejoin="miter" fill="none" stroke="#000000" d="M174.207 187.051C174.027 187.051 173.883 187.125 173.77 187.27 173.664 187.418 173.613 187.613 173.613 187.863 173.613 188.113 173.664 188.312 173.77 188.457 173.883 188.594 174.027 188.66 174.207 188.66 174.395 188.66 174.539 188.59 174.645 188.441 174.746 188.297 174.801 188.105 174.801 187.863 174.801 187.613 174.746 187.418 174.645 187.27 174.539 187.125 174.395 187.051 174.207 187.051ZM174.207 186.77C174.508 186.77 174.742 186.871 174.91 187.066 175.074 187.254 175.16 187.52 175.16 187.863 175.16 188.199 175.074 188.465 174.91 188.66 174.742 188.848 174.508 188.941 174.207 188.941 173.914 188.941 173.68 188.848 173.504 188.66 173.336 188.465 173.254 188.199 173.254 187.863 173.254 187.52 173.336 187.254 173.504 187.066 173.68 186.871 173.914 186.77 174.207 186.77ZM174.207 186.77"/>
<text xml:space="preserve" transform="matrix(1 0 0 1 0 0)" font-size="3.800002" font-family="DejaVuSans"><tspan y="188.89572" x="175.3757">g</tspan></text>
<path stroke-width=".141732" stroke-linecap="butt" stroke-miterlimit="4" stroke-linejoin="miter" fill="none" stroke="#000000" d="M177.094 187.832C177.094 187.582 177.039 187.391 176.938 187.254 176.844 187.121 176.703 187.051 176.516 187.051 176.336 187.051 176.195 187.121 176.094 187.254 175.988 187.391 175.938 187.582 175.938 187.832 175.938 188.082 175.988 188.277 176.094 188.41 176.195 188.547 176.336 188.613 176.516 188.613 176.703 188.613 176.844 188.547 176.938 188.41 177.039 188.277 177.094 188.082 177.094 187.832ZM177.438 188.645C177.438 188.988 177.359 189.246 177.203 189.426 177.047 189.602 176.805 189.691 176.484 189.691 176.359 189.691 176.242 189.68 176.141 189.66 176.035 189.637 175.93 189.613 175.828 189.582V189.238C175.93 189.301 176.031 189.34 176.125 189.363 176.227 189.395 176.332 189.41 176.438 189.41 176.656 189.41 176.816 189.348 176.922 189.223 177.035 189.105 177.094 188.93 177.094 188.691V188.535C177.031 188.652 176.941 188.738 176.828 188.801 176.711 188.863 176.582 188.895 176.438 188.895 176.176 188.895 175.969 188.801 175.812 188.613 175.656 188.418 175.578 188.156 175.578 187.832 175.578 187.512 175.656 187.254 175.812 187.066 175.969 186.871 176.176 186.77 176.438 186.77 176.582 186.77 176.711 186.801 176.828 186.863 176.941 186.926 177.031 187.016 177.094 187.129V186.816H177.438ZM177.438 188.645"/>
<text xml:space="preserve" transform="matrix(1 0 0 1 0 0)" font-size="3.800002" font-family="DejaVuSans"><tspan y="188.89572" x="177.78781">r</tspan></text>
<path stroke-width=".141732" stroke-linecap="butt" stroke-miterlimit="4" stroke-linejoin="miter" fill="none" stroke="#000000" d="M179.352 187.145C179.309 187.113 179.266 187.094 179.227 187.082 179.184 187.074 179.133 187.066 179.07 187.066 178.883 187.066 178.734 187.129 178.633 187.254 178.527 187.379 178.477 187.562 178.477 187.801V188.895H178.133V186.816H178.477V187.145C178.547 187.02 178.641 186.926 178.758 186.863 178.871 186.801 179.012 186.77 179.18 186.77 179.199 186.77 179.219 186.77 179.242 186.77 179.273 186.77 179.309 186.777 179.352 186.785ZM179.352 187.145"/>
<text xml:space="preserve" transform="matrix(1 0 0 1 0 0)" font-size="3.800002" font-family="DejaVuSans"><tspan y="188.89572" x="179.35013">a</tspan></text>
<path stroke-width=".141732" stroke-linecap="butt" stroke-miterlimit="4" stroke-linejoin="miter" fill="none" stroke="#000000" d="M180.648 187.848C180.375 187.848 180.184 187.879 180.07 187.941 179.965 188.004 179.914 188.113 179.914 188.27 179.914 188.395 179.953 188.496 180.039 188.566 180.121 188.629 180.23 188.66 180.367 188.66 180.555 188.66 180.703 188.594 180.82 188.457 180.934 188.324 180.992 188.145 180.992 187.926V187.848ZM181.336 187.707V188.895H180.992V188.582C180.918 188.707 180.82 188.801 180.695 188.863 180.578 188.914 180.438 188.941 180.273 188.941 180.062 188.941 179.898 188.887 179.773 188.77 179.648 188.656 179.586 188.496 179.586 188.285 179.586 188.059 179.664 187.887 179.82 187.77 179.977 187.645 180.203 187.582 180.508 187.582H180.992V187.551C180.992 187.395 180.938 187.277 180.836 187.191 180.73 187.098 180.586 187.051 180.398 187.051 180.281 187.051 180.168 187.066 180.055 187.098 179.938 187.129 179.828 187.172 179.727 187.223V186.91C179.852 186.871 179.969 186.84 180.086 186.816 180.211 186.785 180.328 186.77 180.445 186.77 180.734 186.77 180.953 186.848 181.102 187.004 181.258 187.16 181.336 187.395 181.336 187.707ZM181.336 187.707"/>
<text xml:space="preserve" transform="matrix(1 0 0 1 0 0)" font-size="3.800002" font-family="DejaVuSans"><tspan y="188.89572" x="181.67874">m</tspan></text>
<path stroke-width=".141732" stroke-linecap="butt" stroke-miterlimit="4" stroke-linejoin="miter" fill="none" stroke="#000000" d="M183.648 187.223C183.742 187.066 183.844 186.953 183.961 186.879 184.074 186.809 184.215 186.77 184.383 186.77 184.602 186.77 184.766 186.848 184.883 187.004 184.996 187.152 185.055 187.363 185.055 187.645V188.895H184.711V187.66C184.711 187.453 184.672 187.301 184.602 187.207 184.539 187.113 184.434 187.066 184.289 187.066 184.109 187.066 183.969 187.125 183.867 187.238 183.762 187.355 183.711 187.516 183.711 187.723V188.895H183.367V187.66C183.367 187.453 183.328 187.301 183.258 187.207 183.195 187.113 183.086 187.066 182.93 187.066 182.762 187.066 182.625 187.129 182.523 187.254 182.418 187.371 182.367 187.527 182.367 187.723V188.895H182.023V186.816H182.367V187.145C182.438 187.02 182.527 186.926 182.633 186.863 182.746 186.801 182.883 186.77 183.039 186.77 183.184 186.77 183.309 186.812 183.414 186.895 183.527 186.969 183.605 187.078 183.648 187.223ZM183.648 187.223"/>
<text xml:space="preserve" transform="matrix(1 0 0 1 0 0)" font-size="3.800002" font-family="DejaVuSans"><tspan y="188.89572" x="185.3804">m</tspan></text>
<path stroke-width=".141732" stroke-linecap="butt" stroke-miterlimit="4" stroke-linejoin="miter" fill="none" stroke="#000000" d="M187.348 187.223C187.441 187.066 187.543 186.953 187.66 186.879 187.773 186.809 187.914 186.77 188.082 186.77 188.301 186.77 188.465 186.848 188.582 187.004 188.695 187.152 188.754 187.363 188.754 187.645V188.895H188.41V187.66C188.41 187.453 188.371 187.301 188.301 187.207 188.238 187.113 188.133 187.066 187.988 187.066 187.809 187.066 187.668 187.125 187.566 187.238 187.461 187.355 187.41 187.516 187.41 187.723V188.895H187.066V187.66C187.066 187.453 187.027 187.301 186.957 187.207 186.895 187.113 186.785 187.066 186.629 187.066 186.461 187.066 186.324 187.129 186.223 187.254 186.117 187.371 186.066 187.527 186.066 187.723V188.895H185.723V186.816H186.066V187.145C186.137 187.02 186.227 186.926 186.332 186.863 186.445 186.801 186.582 186.77 186.738 186.77 186.883 186.77 187.008 186.812 187.113 186.895 187.227 186.969 187.305 187.078 187.348 187.223ZM187.348 187.223"/>
<text xml:space="preserve" transform="matrix(1 0 0 1 0 0)" font-size="3.800002" font-family="DejaVuSans"><tspan y="188.89572" x="189.08206">e</tspan></text>
<path stroke-width=".141732" stroke-linecap="butt" stroke-miterlimit="4" stroke-linejoin="miter" fill="none" stroke="#000000" d="M191.223 187.77V187.941H189.645C189.664 188.172 189.738 188.348 189.863 188.473 189.988 188.598 190.164 188.66 190.395 188.66 190.52 188.66 190.645 188.645 190.77 188.613 190.895 188.582 191.012 188.535 191.129 188.473V188.785C191.012 188.84 190.887 188.875 190.754 188.895 190.629 188.926 190.496 188.941 190.363 188.941 190.039 188.941 189.777 188.848 189.582 188.66 189.383 188.465 189.285 188.203 189.285 187.879 189.285 187.535 189.379 187.266 189.566 187.066 189.754 186.871 190.004 186.77 190.316 186.77 190.586 186.77 190.805 186.859 190.973 187.035 191.137 187.215 191.223 187.457 191.223 187.77ZM190.879 187.676C190.867 187.488 190.809 187.34 190.707 187.223 190.613 187.109 190.48 187.051 190.316 187.051 190.129 187.051 189.977 187.109 189.863 187.223 189.746 187.328 189.68 187.48 189.66 187.676ZM190.879 187.676"/>
<text xml:space="preserve" transform="matrix(1 0 0 1 0 0)" font-size="3.800002" font-family="DejaVuSans"><tspan y="188.89572" x="191.41996">r</tspan></text>
<path stroke-width=".141732" stroke-linecap="butt" stroke-miterlimit="4" stroke-linejoin="miter" fill="none" stroke="#000000" d="M192.984 187.145C192.941 187.113 192.898 187.094 192.859 187.082 192.816 187.074 192.766 187.066 192.703 187.066 192.516 187.066 192.367 187.129 192.266 187.254 192.16 187.379 192.109 187.562 192.109 187.801V188.895H191.766V186.816H192.109V187.145C192.18 187.02 192.273 186.926 192.391 186.863 192.504 186.801 192.645 186.77 192.812 186.77 192.832 186.77 192.852 186.77 192.875 186.77 192.906 186.77 192.941 186.777 192.984 186.785ZM192.984 187.145"/>
<text xml:space="preserve" transform="matrix(1 0 0 1 0 0)" font-size="3.800002" font-family="DejaVuSans"><tspan y="188.89572" x="192.98226">s</tspan></text>
<path stroke-width=".141732" stroke-linecap="butt" stroke-miterlimit="4" stroke-linejoin="miter" fill="none" stroke="#000000" d="M194.668 186.879V187.207C194.562 187.156 194.457 187.121 194.355 187.098 194.25 187.066 194.145 187.051 194.043 187.051 193.863 187.051 193.734 187.078 193.652 187.129 193.566 187.184 193.527 187.262 193.527 187.363 193.527 187.449 193.559 187.512 193.621 187.551 193.684 187.594 193.801 187.637 193.98 187.676L194.105 187.707C194.344 187.762 194.516 187.832 194.621 187.926 194.723 188.02 194.777 188.152 194.777 188.316 194.777 188.516 194.699 188.672 194.543 188.785 194.387 188.891 194.176 188.941 193.918 188.941 193.801 188.941 193.684 188.93 193.559 188.91 193.441 188.891 193.316 188.859 193.184 188.816V188.473C193.309 188.535 193.434 188.582 193.559 188.613 193.684 188.645 193.801 188.66 193.918 188.66 194.082 188.66 194.207 188.637 194.293 188.582 194.375 188.531 194.418 188.453 194.418 188.348 194.418 188.254 194.387 188.188 194.324 188.145 194.262 188.094 194.125 188.043 193.918 187.988L193.793 187.957C193.582 187.918 193.434 187.848 193.34 187.754 193.246 187.66 193.199 187.535 193.199 187.379 193.199 187.184 193.266 187.031 193.402 186.926 193.547 186.824 193.746 186.77 193.996 186.77 194.121 186.77 194.238 186.781 194.355 186.801 194.469 186.812 194.574 186.84 194.668 186.879ZM194.668 186.879"/>
<text xml:space="preserve" transform="matrix(1 0 0 1 0 0)" font-size="3.999997" font-family="DejaVuSans"><tspan y="199.64606" x="160.41532">P</tspan></text>
<path stroke-width=".141732" stroke-linecap="butt" stroke-miterlimit="4" stroke-linejoin="miter" fill="none" stroke="#000000" d="M161.195 197.051V198.145H161.695C161.883 198.145 162.023 198.098 162.117 198.004 162.219 197.91 162.273 197.777 162.273 197.598 162.273 197.422 162.219 197.285 162.117 197.191 162.023 197.098 161.883 197.051 161.695 197.051ZM160.805 196.723H161.695C162.027 196.723 162.277 196.801 162.445 196.957 162.609 197.105 162.695 197.316 162.695 197.598 162.695 197.891 162.609 198.109 162.445 198.254 162.277 198.402 162.027 198.473 161.695 198.473H161.195V199.645H160.805ZM160.805 196.723"/>
<text xml:space="preserve" transform="matrix(1 0 0 1 0 0)" font-size="3.999997" font-family="DejaVuSans"><tspan y="199.64606" x="162.75711">r</tspan></text>
<path stroke-width=".141732" stroke-linecap="butt" stroke-miterlimit="4" stroke-linejoin="miter" fill="none" stroke="#000000" d="M164.398 197.785C164.355 197.766 164.309 197.75 164.258 197.738 164.215 197.73 164.168 197.723 164.117 197.723 163.906 197.723 163.746 197.793 163.633 197.926 163.527 198.051 163.477 198.238 163.477 198.488V199.645H163.117V197.457H163.477V197.801C163.559 197.668 163.656 197.566 163.773 197.504 163.898 197.441 164.047 197.41 164.227 197.41 164.246 197.41 164.273 197.41 164.305 197.41 164.336 197.41 164.367 197.418 164.398 197.426ZM164.398 197.785"/>
<text xml:space="preserve" transform="matrix(1 0 0 1 0 0)" font-size="3.999997" font-family="DejaVuSans"><tspan y="199.64606" x="164.31375">o</tspan></text>
<path stroke-width=".141732" stroke-linecap="butt" stroke-miterlimit="4" stroke-linejoin="miter" fill="none" stroke="#000000" d="M165.531 197.707C165.344 197.707 165.191 197.785 165.078 197.941 164.961 198.09 164.906 198.293 164.906 198.551 164.906 198.812 164.961 199.02 165.078 199.176 165.191 199.324 165.344 199.395 165.531 199.395 165.727 199.395 165.879 199.324 165.984 199.176 166.098 199.02 166.156 198.812 166.156 198.551 166.156 198.293 166.098 198.09 165.984 197.941 165.879 197.785 165.727 197.707 165.531 197.707ZM165.531 197.41C165.844 197.41 166.086 197.516 166.266 197.723 166.453 197.922 166.547 198.199 166.547 198.551 166.547 198.906 166.453 199.188 166.266 199.395 166.086 199.605 165.844 199.707 165.531 199.707 165.219 199.707 164.973 199.605 164.797 199.395 164.617 199.188 164.531 198.906 164.531 198.551 164.531 198.199 164.617 197.922 164.797 197.723 164.973 197.516 165.219 197.41 165.531 197.41ZM165.531 197.41"/>
<text xml:space="preserve" transform="matrix(1 0 0 1 0 0)" font-size="3.999997" font-family="DejaVuSans"><tspan y="199.64606" x="166.761">g</tspan></text>
<path stroke-width=".141732" stroke-linecap="butt" stroke-miterlimit="4" stroke-linejoin="miter" fill="none" stroke="#000000" d="M168.574 198.52C168.574 198.262 168.52 198.062 168.418 197.926 168.312 197.781 168.16 197.707 167.965 197.707 167.777 197.707 167.625 197.781 167.512 197.926 167.406 198.062 167.355 198.262 167.355 198.52 167.355 198.781 167.406 198.984 167.512 199.129 167.625 199.277 167.777 199.348 167.965 199.348 168.16 199.348 168.312 199.277 168.418 199.129 168.52 198.984 168.574 198.781 168.574 198.52ZM168.934 199.379C168.934 199.742 168.848 200.012 168.684 200.191 168.527 200.379 168.277 200.473 167.934 200.473 167.809 200.473 167.688 200.461 167.574 200.441 167.457 200.43 167.348 200.402 167.246 200.363V200.02C167.348 200.07 167.453 200.105 167.559 200.129 167.66 200.16 167.766 200.176 167.871 200.176 168.109 200.176 168.285 200.113 168.402 199.988 168.516 199.871 168.574 199.691 168.574 199.441V199.254C168.5 199.391 168.406 199.488 168.293 199.551 168.176 199.613 168.035 199.645 167.871 199.645 167.609 199.645 167.395 199.547 167.23 199.348 167.062 199.141 166.98 198.863 166.98 198.52 166.98 198.188 167.062 197.922 167.23 197.723 167.395 197.516 167.609 197.41 167.871 197.41 168.035 197.41 168.176 197.441 168.293 197.504 168.406 197.566 168.5 197.66 168.574 197.785V197.457H168.934ZM168.934 199.379"/>
<text xml:space="preserve" transform="matrix(1 0 0 1 0 0)" font-size="3.999997" font-family="DejaVuSans"><tspan y="199.64606" x="169.30007">r</tspan></text>
<path stroke-width=".141732" stroke-linecap="butt" stroke-miterlimit="4" stroke-linejoin="miter" fill="none" stroke="#000000" d="M170.941 197.785C170.898 197.766 170.852 197.75 170.801 197.738 170.758 197.73 170.711 197.723 170.66 197.723 170.449 197.723 170.289 197.793 170.176 197.926 170.07 198.051 170.02 198.238 170.02 198.488V199.645H169.66V197.457H170.02V197.801C170.102 197.668 170.199 197.566 170.316 197.504 170.441 197.441 170.59 197.41 170.77 197.41 170.789 197.41 170.816 197.41 170.848 197.41 170.879 197.41 170.91 197.418 170.941 197.426ZM170.941 197.785"/>
<text xml:space="preserve" transform="matrix(1 0 0 1 0 0)" font-size="3.999997" font-family="DejaVuSans"><tspan y="199.64606" x="170.9446">a</tspan></text>
<path stroke-width=".141732" stroke-linecap="butt" stroke-miterlimit="4" stroke-linejoin="miter" fill="none" stroke="#000000" d="M172.32 198.551C172.027 198.551 171.824 198.582 171.711 198.645 171.594 198.707 171.539 198.824 171.539 198.988 171.539 199.113 171.578 199.215 171.664 199.285 171.758 199.359 171.871 199.395 172.008 199.395 172.215 199.395 172.375 199.328 172.492 199.191 172.617 199.047 172.68 198.859 172.68 198.629V198.551ZM173.039 198.395V199.645H172.68V199.316C172.594 199.441 172.492 199.543 172.367 199.613 172.242 199.676 172.09 199.707 171.914 199.707 171.695 199.707 171.516 199.645 171.383 199.52 171.246 199.387 171.18 199.215 171.18 199.004 171.18 198.766 171.262 198.582 171.43 198.457 171.594 198.332 171.84 198.27 172.164 198.27H172.68V198.223C172.68 198.059 172.621 197.934 172.508 197.848 172.402 197.754 172.25 197.707 172.055 197.707 171.93 197.707 171.805 197.723 171.68 197.754 171.562 197.785 171.453 197.832 171.352 197.895V197.551C171.477 197.5 171.602 197.465 171.727 197.441 171.852 197.422 171.969 197.41 172.086 197.41 172.406 197.41 172.648 197.496 172.805 197.66 172.961 197.816 173.039 198.062 173.039 198.395ZM173.039 198.395"/>
<text xml:space="preserve" transform="matrix(1 0 0 1 0 0)" font-size="3.999997" font-family="DejaVuSans"><tspan y="199.64606" x="173.39577">m</tspan></text>
<path stroke-width=".141732" stroke-linecap="butt" stroke-miterlimit="4" stroke-linejoin="miter" fill="none" stroke="#000000" d="M175.473 197.879C175.566 197.715 175.676 197.594 175.801 197.52 175.926 197.449 176.07 197.41 176.238 197.41 176.465 197.41 176.645 197.488 176.77 197.645 176.895 197.801 176.957 198.027 176.957 198.316V199.645H176.598V198.332C176.598 198.125 176.555 197.973 176.473 197.879 176.398 197.777 176.289 197.723 176.145 197.723 175.957 197.723 175.805 197.785 175.691 197.91 175.586 198.027 175.535 198.191 175.535 198.41V199.645H175.176V198.332C175.176 198.125 175.137 197.973 175.066 197.879 174.992 197.777 174.879 197.723 174.723 197.723 174.535 197.723 174.383 197.785 174.27 197.91 174.164 198.027 174.113 198.191 174.113 198.41V199.645H173.754V197.457H174.113V197.801C174.195 197.668 174.293 197.566 174.41 197.504 174.523 197.441 174.66 197.41 174.816 197.41 174.98 197.41 175.117 197.453 175.223 197.535 175.336 197.609 175.418 197.723 175.473 197.879ZM175.473 197.879"/>
<text xml:space="preserve" transform="matrix(1 0 0 1 0 0)" font-size="3.999997" font-family="DejaVuSans"><tspan y="199.64606" x="177.29225">m</tspan></text>
<path stroke-width=".141732" stroke-linecap="butt" stroke-miterlimit="4" stroke-linejoin="miter" fill="none" stroke="#000000" d="M179.371 197.879C179.465 197.715 179.574 197.594 179.699 197.52 179.824 197.449 179.969 197.41 180.137 197.41 180.363 197.41 180.543 197.488 180.668 197.645 180.793 197.801 180.855 198.027 180.855 198.316V199.645H180.496V198.332C180.496 198.125 180.453 197.973 180.371 197.879 180.297 197.777 180.188 197.723 180.043 197.723 179.855 197.723 179.703 197.785 179.59 197.91 179.484 198.027 179.434 198.191 179.434 198.41V199.645H179.074V198.332C179.074 198.125 179.035 197.973 178.965 197.879 178.891 197.777 178.777 197.723 178.621 197.723 178.434 197.723 178.281 197.785 178.168 197.91 178.062 198.027 178.012 198.191 178.012 198.41V199.645H177.652V197.457H178.012V197.801C178.094 197.668 178.191 197.566 178.309 197.504 178.422 197.441 178.559 197.41 178.715 197.41 178.879 197.41 179.016 197.453 179.121 197.535 179.234 197.609 179.316 197.723 179.371 197.879ZM179.371 197.879"/>
<text xml:space="preserve" transform="matrix(1 0 0 1 0 0)" font-size="3.999997" font-family="DejaVuSans"><tspan y="199.64606" x="181.18874">e</tspan></text>
<path stroke-width=".141732" stroke-linecap="butt" stroke-miterlimit="4" stroke-linejoin="miter" fill="none" stroke="#000000" d="M183.438 198.457V198.629H181.781C181.801 198.879 181.875 199.074 182 199.207 182.133 199.332 182.32 199.395 182.562 199.395 182.695 199.395 182.828 199.379 182.953 199.348 183.086 199.316 183.223 199.266 183.359 199.191V199.535C183.223 199.59 183.086 199.629 182.953 199.66 182.816 199.691 182.68 199.707 182.547 199.707 182.191 199.707 181.91 199.609 181.703 199.41 181.504 199.203 181.406 198.922 181.406 198.566 181.406 198.215 181.5 197.934 181.688 197.723 181.883 197.516 182.148 197.41 182.484 197.41 182.773 197.41 183.004 197.504 183.172 197.691 183.348 197.879 183.438 198.137 183.438 198.457ZM183.078 198.348C183.078 198.16 183.02 198.012 182.906 197.895 182.801 197.77 182.66 197.707 182.484 197.707 182.285 197.707 182.125 197.766 182 197.879 181.883 197.996 181.816 198.156 181.797 198.363ZM183.078 198.348"/>
<text xml:space="preserve" transform="matrix(1 0 0 1 0 0)" font-size="3.999997" font-family="DejaVuSans"><tspan y="199.64606" x="183.64968">r</tspan></text>
<path stroke-width=".141732" stroke-linecap="butt" stroke-miterlimit="4" stroke-linejoin="miter" fill="none" stroke="#000000" d="M185.289 197.785C185.246 197.766 185.199 197.75 185.148 197.738 185.105 197.73 185.059 197.723 185.008 197.723 184.797 197.723 184.637 197.793 184.523 197.926 184.418 198.051 184.367 198.238 184.367 198.488V199.645H184.008V197.457H184.367V197.801C184.449 197.668 184.547 197.566 184.664 197.504 184.789 197.441 184.938 197.41 185.117 197.41 185.137 197.41 185.164 197.41 185.195 197.41 185.227 197.41 185.258 197.418 185.289 197.426ZM185.289 197.785"/>
<text xml:space="preserve" transform="matrix(1 0 0 1 0 0)" font-size="3.999997" font-family="DejaVuSans"><tspan y="199.64606" x="185.29419">s</tspan></text>
<path stroke-width=".141732" stroke-linecap="butt" stroke-miterlimit="4" stroke-linejoin="miter" fill="none" stroke="#000000" d="M187.059 197.52V197.863C186.965 197.812 186.859 197.777 186.746 197.754 186.641 197.723 186.527 197.707 186.402 197.707 186.223 197.707 186.09 197.734 185.996 197.785 185.91 197.84 185.871 197.922 185.871 198.035 185.871 198.121 185.902 198.188 185.965 198.238 186.027 198.281 186.156 198.324 186.355 198.363L186.48 198.395C186.73 198.449 186.906 198.527 187.012 198.629 187.125 198.723 187.184 198.859 187.184 199.035 187.184 199.246 187.098 199.41 186.934 199.535 186.777 199.648 186.559 199.707 186.277 199.707 186.16 199.707 186.035 199.691 185.902 199.66 185.777 199.641 185.645 199.609 185.512 199.566V199.191C185.645 199.266 185.777 199.316 185.902 199.348 186.027 199.379 186.156 199.395 186.293 199.395 186.457 199.395 186.582 199.371 186.668 199.316 186.762 199.254 186.809 199.172 186.809 199.066 186.809 198.973 186.777 198.902 186.715 198.848 186.652 198.797 186.504 198.746 186.277 198.691L186.152 198.66C185.934 198.621 185.77 198.551 185.668 198.457 185.574 198.355 185.527 198.219 185.527 198.051 185.527 197.844 185.598 197.688 185.746 197.582 185.891 197.469 186.098 197.41 186.371 197.41 186.496 197.41 186.613 197.422 186.73 197.441 186.855 197.453 186.965 197.48 187.059 197.52ZM187.059 197.52"/>
<text xml:space="preserve" transform="matrix(.6989487 -.71517178 .71517178 .6989487 0 0)" font-size="2.9999912" font-family="DejaVuSans"><tspan y="118.60961" x="19.59433 21.838318">No</tspan><tspan y="118.609607" x="23.67131 25.570313 26.650303 28.5523">n-pr</tspan><tspan y="118.60961" x="29.7193">o</tspan><tspan y="118.609607" x="31.552292">g</tspan><tspan y="118.60962" x="33.45429"> </tspan><tspan y="118.609607" x="34.40528 35.581277">to</tspan><tspan y="122.3596" x="19.594326">p</tspan><tspan y="122.359607" x="21.496323 22.663323 24.496315 26.398312 27.631302 29.4673 32.38929 35.311277 37.156274">rogrammer</tspan></text>
<text xml:space="preserve" transform="matrix(.94576087 0 0 1.0573498 0 0)" font-size="2.8436597" font-family="DejaVuSans"><tspan y="70.00474" x="60.822278 62.48582 63.59201 65.32948 67.13237 68.30111 70.04143 72.81116 75.58089 77.329738">Programmer</tspan><tspan y="73.55932" x="62.459329 64.26221 65.43095 67.17127 68.97415 70.77419 72.51451 73.62923 75.378078">graduates</tspan></text>
<text xml:space="preserve" transform="matrix(.016212384 -.9456219 1.0571942 .018125235 0 0)" font-size="2.8436599" font-family="DejaVuSans"><tspan y="73.757938" x="-65.62413 -63.497079">No</tspan><tspan y="73.75794" x="-61.7596 -59.959566">n-</tspan><tspan y="73.757938" x="-58.93585 -57.13297 -56.026788">pro</tspan><tspan y="73.75794" x="-54.28931">g</tspan><tspan y="77.312519" x="-63.272706 -62.48501">in</tspan></text>
<text xml:space="preserve" transform="matrix(.016212384 -.9456219 1.0571942 .018125235 0 0)" font-size="2.8436599" font-family="DejaVuSans"><tspan y="77.312519" x="-60.68497">&#xfb02;</tspan></text>
<text xml:space="preserve" transform="matrix(.016212384 -.9456219 1.0571942 .018125235 0 0)" font-size="2.8436599" font-family="DejaVuSans"><tspan y="77.312519" x="-58.89631 -57.158838">ow</tspan></text>
<text xml:space="preserve" transform="matrix(-.0021187934 .9999978 -.9999978 -.0021187934 0 0)" font-size="2.9999908" font-family="DejaVuSans"><tspan y="-93.865139" x="90.92752 93.17152 95.00451">Non</tspan><tspan y="-93.86514" x="96.903499 97.9835 99.8855 101.05249 102.88549">-prog</tspan><tspan y="-90.11515" x="93.79568 94.62667">le</tspan><tspan y="-90.11516" x="96.47168">a</tspan><tspan y="-90.11515" x="98.30767">v</tspan><tspan y="-90.11516" x="100.08066">e</tspan></text>
<path stroke-width=".777257" stroke-linecap="butt" stroke-miterlimit="4" stroke-linejoin="miter" fill="none" stroke="#000000" d="M126.488 92.141 126.473 103.434"/>
<path transform="matrix(.00130515,-1,1,.00130515,0,0)" d="M-89.643 126.605C-90.811 126.994-92.364 127.773-93.141 128.551-93.141 128.551-93.143 126.997-92.362 126.605-93.14 126.219-93.142 124.665-93.142 124.665-92.364 125.441-90.808 126.22-89.643 126.605ZM-89.643 126.605" fill-rule="evenodd"/>
<path transform="matrix(.00130515,-1,1,.00130515,0,0)" stroke-width=".518171" stroke-linecap="butt" stroke-miterlimit="4" stroke-linejoin="miter" fill="none" stroke="#000000" d="M-89.643 126.605C-90.811 126.994-92.364 127.773-93.141 128.551-93.141 128.551-93.143 126.997-92.362 126.605-93.14 126.219-93.142 124.665-93.142 124.665-92.364 125.441-90.808 126.22-89.643 126.605ZM-89.643 126.605"/>
<path stroke-width=".777257" stroke-linecap="butt" stroke-miterlimit="4" stroke-linejoin="miter" fill="none" stroke="#000000" d="M127.688 135.082 127.672 146.375"/>
<path transform="matrix(.00130515,-1,1,.00130515,0,0)" d="M-132.583 127.864C-133.747 128.253-135.304 129.028-136.081 129.807-136.081 129.807-136.079 128.252-135.302 127.864-136.08 127.474-136.078 125.92-136.078 125.92-135.303 126.696-133.748 127.475-132.583 127.864ZM-132.583 127.864" fill-rule="evenodd"/>
<path transform="matrix(.00130515,-1,1,.00130515,0,0)" stroke-width=".518171" stroke-linecap="butt" stroke-miterlimit="4" stroke-linejoin="miter" fill="none" stroke="#000000" d="M-132.583 127.864C-133.747 128.253-135.304 129.028-136.081 129.807-136.081 129.807-136.079 128.252-135.302 127.864-136.08 127.474-136.078 125.92-136.078 125.92-135.303 126.696-133.748 127.475-132.583 127.864ZM-132.583 127.864"/>
<path stroke-width=".796688" stroke-linecap="butt" stroke-miterlimit="4" stroke-linejoin="miter" fill="none" stroke="#000000" d="M126.785 53.773 126.77 66.906"/>
<path transform="matrix(.00101447,-1,1,.00101447,0,0)" d="M-51.254 126.837C-52.449 127.237-54.042 128.031-54.838 128.829-54.838 128.829-54.84 127.235-54.043 126.84-54.84 126.438-54.838 124.845-54.838 124.845-54.044 125.645-52.45 126.44-51.254 126.837ZM-51.254 126.837" fill-rule="evenodd"/>
<path transform="matrix(.00101447,-1,1,.00101447,0,0)" stroke-width=".531125" stroke-linecap="butt" stroke-miterlimit="4" stroke-linejoin="miter" fill="none" stroke="#000000" d="M-51.254 126.837C-52.449 127.237-54.042 128.031-54.838 128.829-54.838 128.829-54.84 127.235-54.043 126.84-54.84 126.438-54.838 124.845-54.838 124.845-54.044 125.645-52.45 126.44-51.254 126.837ZM-51.254 126.837"/>
<path stroke-width=".708205" stroke-linecap="butt" stroke-miterlimit="4" stroke-linejoin="miter" fill="none" stroke="#000000" d="M165.477 54.66 165.465 63.879"/>
<path transform="matrix(.00162957,-1,1,.00162957,0,0)" d="M-52.265 165.566C-53.327 165.923-54.744 166.628-55.454 167.336-55.454 167.336-55.452 165.922-54.746 165.566-55.453 165.211-55.452 163.797-55.452 163.797-54.744 164.503-53.328 165.212-52.265 165.566ZM-52.265 165.566" fill-rule="evenodd"/>
<path transform="matrix(.00162957,-1,1,.00162957,0,0)" stroke-width=".472136" stroke-linecap="butt" stroke-miterlimit="4" stroke-linejoin="miter" fill="none" stroke="#000000" d="M-52.265 165.566C-53.327 165.923-54.744 166.628-55.454 167.336-55.454 167.336-55.452 165.922-54.746 165.566-55.453 165.211-55.452 163.797-55.452 163.797-54.744 164.503-53.328 165.212-52.265 165.566ZM-52.265 165.566"/>
<path stroke-width=".708205" stroke-linecap="butt" stroke-miterlimit="4" stroke-linejoin="miter" fill="none" stroke="#000000" d="M166.715 95.73 166.699 104.949"/>
<path transform="matrix(.00162957,-1,1,.00162957,0,0)" d="M-93.334 166.871C-94.395 167.224-95.812 167.933-96.518 168.642-96.518 168.642-96.52 167.224-95.81 166.871-96.518 166.517-96.52 165.099-96.52 165.099-95.812 165.808-94.393 166.517-93.334 166.871ZM-93.334 166.871" fill-rule="evenodd"/>
<path transform="matrix(.00162957,-1,1,.00162957,0,0)" stroke-width=".472136" stroke-linecap="butt" stroke-miterlimit="4" stroke-linejoin="miter" fill="none" stroke="#000000" d="M-93.334 166.871C-94.395 167.224-95.812 167.933-96.518 168.642-96.518 168.642-96.52 167.224-95.81 166.871-96.518 166.517-96.52 165.099-96.52 165.099-95.812 165.808-94.393 166.517-93.334 166.871ZM-93.334 166.871"/>
<path stroke-width=".793701" stroke-linecap="butt" stroke-miterlimit="4" stroke-linejoin="miter" fill="none" stroke="#000000" d="M207.574 56.152 207.559 65.371"/>
<path transform="matrix(.00162957,-1,1,.00162957,0,0)" d="M-53.431 207.665C-54.622 208.062-56.21 208.857-57.002 209.651-57.002 209.651-57.005 208.062-56.208 207.666-57.002 207.269-57.005 205.683-57.005 205.683-56.21 206.474-54.623 207.269-53.431 207.665ZM-53.431 207.665" fill-rule="evenodd"/>
<path transform="matrix(.00162957,-1,1,.00162957,0,0)" stroke-width=".529133" stroke-linecap="butt" stroke-miterlimit="4" stroke-linejoin="miter" fill="none" stroke="#000000" d="M-53.431 207.665C-54.622 208.062-56.21 208.857-57.002 209.651-57.002 209.651-57.005 208.062-56.208 207.666-57.002 207.269-57.005 205.683-57.005 205.683-56.21 206.474-54.623 207.269-53.431 207.665ZM-53.431 207.665"/>
</g>
</svg>
